<?xml version="1.0" encoding="UTF-8"?>
<!DOCTYPE svg  PUBLIC '-//W3C//DTD SVG 1.1//EN'  'http://www.w3.org/Graphics/SVG/1.1/DTD/svg11.dtd'>
<svg width="1900px" height="1567px" clip-rule="evenodd" fill-rule="evenodd" image-rendering="optimizeQuality" shape-rendering="geometricPrecision" text-rendering="geometricPrecision" version="1.1" viewBox="0 0 1572 1297" xml:space="preserve" xmlns="http://www.w3.org/2000/svg">
 <defs>
  <style type="text/css">
   <![CDATA[
    .fil8 {fill:#FEFEFE}
    .fil4 {fill:#F5A027}
    .fil5 {fill:#EF7B29}
    .fil14 {fill:#EE7862}
    .fil15 {fill:#EA544C}
    .fil7 {fill:#F3A88A}
    .fil6 {fill:#F5C24F}
    .fil0 {fill:#D8E8F5}
    .fil13 {fill:#575384}
    .fil3 {fill:#3179BD}
    .fil11 {fill:#564B7E}
    .fil1 {fill:#3567AF}
    .fil12 {fill:#37323F}
    .fil2 {fill:#3A539E}
    .fil9 {fill:#413A55}
    .fil16 {fill:#302A39}
    .fil10 {fill:#312D3E}
   ]]>
  </style>
 </defs>
  <path class="fil0" d="m1400 1238c-78-59-212-207-36-439 219-287-43-404-293-392-202 10-428-243-655-198-300 60-105 319-308 458-174 119-99 481 127 571h1165z"/>
  <path class="fil0" d="m1542 712c-2-42-41-59-68-28-15 18-29 43-32 77-6 76 60 54 85 13 11-17 15-40 15-62z"/>
  <path class="fil0" d="m812 194c-42-8-66 27-42 60 14 18 36 38 68 48 73 22 66-48 31-81-14-14-36-23-57-27z"/>
  <path class="fil0" d="m121 583c17-39-12-70-49-53-21 9-45 26-61 56-38 66 32 74 71 47 17-11 31-30 39-50z"/>
  <path class="fil0" d="m1503 1250c0 26-320 47-716 47-395 0-716-21-716-47s321-47 716-47c396 0 716 21 716 47z"/>
  <path class="fil1" d="m1484 863c-44 44 5 47-27 81-29 30-73 0-70 74 1 16-11 28-27 34-27 10-54 1-70-18l-4-4c-12-17-17-40-8-63 8-18 21-36 44-44 55-16 25-89 71-92 56-4 58-25 98-52 42-30 53 24-7 84z"/>
  <path class="fil2" d="m1464 839c-1 1-102 106-174 195l-4-4c72-90 173-194 174-195s3-1 4 0c2 1 2 3 0 4z"/>
  <path class="fil3" d="m1495 1009c-68 41-9 61-59 92-47 28-91-23-111 70-4 20-23 32-45 34-37 4-67-16-82-45-1-2-2-4-3-7-10-25-8-55 11-80 15-21 37-39 68-40 74-4 60-104 118-93 71 13 80-12 139-33 61-23 58 47-36 102z"/>
  <path class="fil1" d="m1479 973c-2 1-163 99-281 187-1-2-2-4-3-7 118-88 278-185 280-186s4-1 5 1 0 4-1 5z"/>
  <path class="fil1" d="m156 362c23 57-23 42-6 85 15 39 66 29 35 96-7 14 0 30 12 42 22 20 50 21 72 10 2-1 3-2 5-3 18-10 31-30 31-54 0-20-5-42-23-58-45-36 12-92-30-112-50-26-44-45-70-86-28-43-58 2-26 80z"/>
  <path class="fil2" d="m183 348c1 1 54 137 86 247 2-1 3-2 5-3-32-110-85-245-86-247 0-1-2-2-3-1-2 0-3 2-2 4z"/>
  <path class="fil3" d="m88 512c50 62-13 60 23 107 34 43 93 11 79 105-3 21 10 38 30 48 33 17 68 8 92-13 2-2 4-3 5-5 19-20 28-49 19-79-6-25-21-50-50-62-67-30-18-118-77-129-70-13-70-39-117-80-49-44-71 23-4 108z"/>
  <path class="fil1" d="m117 484c1 2 116 150 195 275 2-2 4-3 5-5-79-125-193-273-194-275-1-1-4-1-5 0-2 1-2 3-1 5z"/>
  <path class="fil3" d="m424 458c20-14 70 20 96 61l-23-65c-9-8-23-18-46-26-36-13-72-33-52-46 19-13 64 16 91 53l-30-83c-5-5-14-10-26-14-22-8-45-21-32-29 11-8 36 7 53 28l-9-27c-5-8-11-19-21-29-23-24-40-51-23-55 18-3 47 43 52 85l5 14c-4-30 7-68 22-69 16-1 6 23-6 43-10 16-12 28-13 35l23 66c-6-49 12-107 36-109 24-3 9 36-10 68-15 25-20 44-21 54l29 80c-5-48 12-107 36-107 18 0 12 26-10 63-15 25-19 47-21 59l13 37c-2 2-4 3-6 3l-6-15c-7-7-23-20-50-29-35-13-71-33-51-46z"/>
  <path class="fil3" d="m248 1010c-21 13-10 72 17 113l-50-47c-4-11-7-29-5-53 2-38-2-79-22-66-20 12-11 65 13 105l-65-60c-2-7-3-17-3-30 2-24 0-49-13-41-12 7-8 36 5 60l-21-19c-6-8-14-18-19-31-13-31-31-57-41-42-11 14 20 59 57 80l11 11c-26-16-65-21-72-7-7 13 18 14 42 11 18-3 31 0 37 2l51 48c-42-25-103-33-114-11-12 21 29 23 67 17 28-3 48 0 58 4l61 57c-42-24-102-31-112-9-8 17 19 22 61 16 29-4 52 1 63 4l29 27c2-1 4-3 5-5l-12-11c-3-10-8-29-6-57 2-38-2-79-22-66z"/>
  <polygon class="fil4" points="1284 477 1284 1235 188 1235 188 477"/>
  <polygon class="fil5" points="1284 477 1284 526 736 1012 188 526 188 477 736 965"/>
  <polygon class="fil5" points="631 869 220 1235 188 1235 188 1215 607 843"/>
  <polygon class="fil5" points="1284 1218 1284 1235 1250 1235 839 869 863 843"/>
  <polygon class="fil6" points="188 477 736 965 1284 477"/>
  <polygon class="fil7" points="982 409 996 439 966 439 955 412"/>
  <path class="fil3" d="m987 437s6-8 10-8c5 1 43 30 55 33 13 2 12 15 6 15h-100s-2-30 1-39 18 1 28-1z"/>
  <path class="fil8" d="m1007 458s-1 0-1-1c-1 0-1-1-1-2 0 0 4-7 9-10 7-3 13 1 13 1 1 1 1 2 0 2 0 1-1 1-2 1 0 0-4-3-9 0-4 2-8 8-8 8s0 1-1 1z"/>
  <path class="fil8" d="m1002 453c-1 0-1 0-2-1 0 0-1-1 0-2 0 0 4-7 9-10 7-3 12 1 13 1 0 1 1 2 0 2-1 1-2 1-2 1-1 0-4-3-9 0-5 2-8 8-8 8s-1 0-1 1z"/>
  <path class="fil8" d="m1014 462h-1c-1-1-1-2-1-3 0 0 4-7 10-10 7-3 12 1 12 1 1 1 1 2 1 3h-3s-4-3-9 0c-4 2-8 8-8 8s0 1-1 1z"/>
  <path class="fil9" d="m990 419l-13 4h-7l-13 1c-16-13-61-52-69-76 0 0-58 134-137 134-5 0 8-66 21-80 0 0 73-137 121-122 21 6 42 37 97 139z"/>
  <path class="fil10" d="m977 423h-7c-49-36-71-68-82-88l-1-1-1 1c-23 55-51 88-70 106-22 19-37 26-38 26l-1-2v-2s15-7 36-26c19-18 46-50 69-104 1-2 3-3 5-3s4 1 5 3c11 20 34 52 85 90z"/>
  <path class="fil11" d="m944 415c2 4 6 10 9 12 0 0 28-1 42-8l-6-14s-22 8-45 10z"/>
  <path class="fil1" d="m981 224c-40 16-72 24-99 28h-9c-7 0-17-2-27-7-7-3-18-12-28-22-14-13-27-28-37-39-8-8-13-14-13-14 7-10 22-19 35-24 0 0 26 45 67 67 2 1 4 2 7 3 9-2 34-3 45-3 29-3 53-8 53-8l6 19z"/>
  <path class="fil7" d="m974 204s6-14 13-18c8-4 29-18 34-14 4 4 3 24-16 41-12 11-25 11-25 11l-6-20z"/>
  <path class="fil10" d="m1022 185l-32 29c-1 2-3 2-4 1l-20-9-1-1v-1l-1-3 5-2 50-19 3-1 1 4c0 1 0 1-1 2z"/>
  <path class="fil12" d="m1019 180l-50 19 28-26c2-1 4-2 5-1l17 8z"/>
  <path class="fil9" d="m985 212l-20-9c-1-1-2-3 0-4l31-29c2-2 4-2 5-1l20 9c1 1 1 2 0 4l-32 29c-1 1-3 2-4 1z"/>
  <path class="fil13" d="m989 207h-2l-15-8c-2 0-2-2-1-3l25-23c1-1 2-1 3-1h2l15 8c1 0 2 2 0 3l-24 23c-1 1-2 1-3 1z"/>
  <polygon class="fil12" points="1023 183 1023 183"/>
  <path class="fil7" d="m987 179s4 0 5 4c0 4-4 3-7 2s-5 0-5 0c-2 2-1-7 7-6z"/>
  <path class="fil7" d="m1007 200s7-12 12-18c4-4 6 2 3 6-2 4-7 13-15 12z"/>
  <path class="fil3" d="m676 410l-15-101-1-6v-5l3-143 40-14 2-1 9-3 7-2 42 6 7 1h3l30 4c0 95-9 116 8 193 9 30-23 133-135 71z"/>
  <path class="fil1" d="m699 384c31-9 54-30 68-47 15-18 22-34 22-35 1 0 0-1 0-2-1 0-2 0-2 1-1 0-8 16-23 34-13 16-35 37-66 46-1 0-1 1-1 2s1 1 2 1z"/>
  <path class="fil1" d="m735 386c27-8 50-31 51-32 1 0 1-1 0-2s-2-1-2 0c-1 0-28 27-57 32-1 0-1 1-1 2s1 1 2 1c2 0 4-1 7-1z"/>
  <path class="fil1" d="m715 183c28-7 50-30 51-31s1-2 0-3h-2c0 1-27 28-56 33-1 0-2 1-2 2 1 0 1 1 2 1 3-1 5-1 7-2z"/>
  <polygon class="fil7" points="955 672 966 697 944 707 930 681"/>
  <path class="fil3" d="m961 696s2-10 7-11c5-2 51 10 63 8 13-3 14 6 14 12 0 5-94 39-94 39s-14-26-15-36c0-10 17-6 25-12z"/>
  <path class="fil8" d="m988 707h-1c-1 0-2-1-2-2 0 0 1-8 5-12 5-6 12-5 12-5 1 1 1 2 1 2 0 1-1 2-2 2 0 0-5-1-8 3s-4 11-4 11 0 1-1 1z"/>
  <path class="fil8" d="m981 705h-1c-1 0-2-1-2-2 1 0 1-8 5-13 5-6 12-4 12-4 1 0 2 1 1 2 0 1-1 2-2 1 0 0-5-1-8 4-3 3-4 10-4 10 0 1 0 1-1 2z"/>
  <path class="fil8" d="m997 708h-2c-1 0-2-1-1-2 0 0 1-8 4-12 5-6 12-5 12-5 1 0 2 1 1 2 0 1-1 2-2 2 0 0-4-1-8 3-3 4-4 11-4 11v1z"/>
  <path class="fil9" d="m961 677c-3 3-10 7-18 10-1 1-3 2-4 2-3 1-5 2-7 3 0 0-54-99-75-170 0 0-181-23-187-86v-7c0-6 2-12 6-19s67 0 100 9c0 0 91 36 125 72 17 19 60 186 60 186z"/>
  <path class="fil10" d="m943 687c-1 1-3 2-4 2-27-45-65-149-73-175-1-1-2-3-4-3-88-16-139-40-166-56-12-7-20-14-26-19v-7c6 6 15 14 29 22 27 16 77 39 164 55 3 1 6 4 7 7 9 25 47 130 73 174z"/>
  <path class="fil11" d="m922 682l8 13s22-3 36-18l-5-12s-26 13-39 17z"/>
  <path class="fil7" d="m633 447s13 17 12 26-13 25-22 26c-8 0 11-21 6-21-5 1-42 32-50 32s9-15 16-18c0 0-18 8-22 12s-7-5 13-17c0 0-18 10-19 11-5 0 7-14 17-19 0 0-15 7-16 7-2 1 2-4 13-11 10-5 27-31 27-31l25 3z"/>
  <path class="fil1" d="m663 155s-41 79-51 163l-4 126s4 9 25 3l21-126 15-58s8-71-6-108z"/>
  <path class="fil9" d="m791 68c-5 25-28 42-53 38-25-5-42-29-38-54 5-25 29-41 54-37 25 5 41 28 37 53z"/>
  <path class="fil9" d="m792 60s13-1 13-14c1-11-13-6-10-14 2-8 6-15-4-19-9-4-11 3-21-9-13-13-28 10-41 9-20-3-24 8-27 16-4 8 2 16 2 16l88 15z"/>
  <path class="fil14" d="m781 80s9-9 13 0-8 31-20 23l7-23z"/>
  <path class="fil15" d="m778 96h1c4-7 12-9 12-9s1 0 1-1c-1-1-1-1-2-1 0 0-9 2-13 10 0 0 0 1 1 1z"/>
  <path class="fil15" d="m786 94h1c1 0 1-1 1-2 0 0-1-2-4-4 0 0-1 0-2 1 0 0 0 1 1 1 2 2 2 3 2 3l1 1z"/>
  <path class="fil7" d="m721 114l-4 23s8 12 17 15c9 2 17-8 17-8l4-22-34-8z"/>
  <path class="fil14" d="m721 114l-1 10c5 8 15 12 32 13l3-15-34-8z"/>
  <path class="fil7" d="m707 50c-1 9-2 21-2 30 0 2 0 5 1 7 2 18 9 49 45 43 16-3 26-18 32-35 4-11 7-23 8-31 1-9-2-18-9-23-18-15-40-15-55-12-10 2-18 11-20 21z"/>
  <path class="fil9" d="m763 80c0 2 1 4 2 5 2 0 4-2 4-4 0-3 0-5-2-5-2-1-3 1-4 4z"/>
  <path class="fil9" d="m730 74c0 2 0 4 2 5 2 0 3-2 4-4 0-3-1-5-2-5-2-1-4 1-4 4z"/>
  <path class="fil9" d="m778 68s-11-7-21-4v4s10-1 19 5c1-2 2-3 2-5z"/>
  <path class="fil9" d="m724 58s12-2 21 3l-2 4s-9-3-20-2c0-2-1-3 1-5z"/>
  <path class="fil14" d="m744 94c-1 0-3-1-3-1-1 0-1-1-1-2h2c1 1 3 2 4 1 0 0 1 0 1-1 1-3 2-17 2-17l1-1c1 0 1 1 1 2 0 0-1 13-2 17 0 1-1 2-2 2-1 1-2 1-3 0z"/>
  <path class="fil8" d="m757 104c-2 4-6 12-16 10s-12-10-12-15l28 5z"/>
  <path class="fil14" d="m740 120c-3-1-5-3-5-3-1 0-1-1 0-1 0-1 1-1 1 0l4 2c2 0 5-1 5-1s1 0 1 1c0 0 0 1-1 1 0 0-2 1-5 1z"/>
  <path class="fil9" d="m781 87c1-4 3-10 3-13 0-6-4-9-1-14 2-5-2-12-6-13-4-2-14-2-22-8-8-5-24-5-27 0-5 6-1 8-10 14-4 2-1 10-2 15 0 3 0 4-1 6v2l-10-2c1-8 2-17 2-24 2-10 10-19 20-21 15-3 37-3 55 12 7 5 10 14 9 23-1 6-3 15-6 24l-4-1z"/>
  <path class="fil7" d="m709 79c0-3 1-5 1-8s-1-7-4-9-6-2-8 1c-7 7-6 32 9 29l2-13z"/>
  <path class="fil14" d="m705 84v-1c0-7-6-13-6-13v-2h2c0 1 7 7 6 15 0 1-1 1-1 1h-1z"/>
  <path class="fil14" d="m699 78v-2s2-1 5-1c1 0 2 0 2 1 0 0-1 1-2 1-2 0-3 1-3 1h-2z"/>
  <path class="fil7" d="m1227 609s-15 28-33 51c-5 7-11 13-16 18-9 7-17 11-24 8-26-13-83-114-83-114l14-16s25 29 44 46c17 16 30 28 30 28 3-4 5-8 8-12s6-9 9-14c21-34 47-72 47-72l4 77z"/>
  <path class="fil7" d="m1088 566s6-10 4-19c-2-8-4-27-14-27-3 0 2 8-1 16 0 0-10-5-16-10-6-4-18-11-24-15-2-1-3 1-3 3 2 2 6 6 14 11 0 0-21-11-24-9-4 3 22 16 22 16s-21-8-22-5c-1 2 19 14 19 14s-20-6-16-2c1 2 39 19 47 40 0 0 12-6 14-13z"/>
  <path class="fil14" d="m1194 660c-5 7-11 13-16 18l-11-60c3-4 6-9 9-14l18 56z"/>
  <path class="fil3" d="m1224 529l-55 79 18 70 43-68s8-46-6-81z"/>
  <polygon class="fil7" points="1252 1201 1252 1226 1275 1225 1276 1199"/>
  <path class="fil9" d="m1311 839c-1 3-1 17-3 37-3 54-9 150-13 172-3 22-2 95 0 133 0 6-3 12-7 16-1 2-3 3-5 5-4 2-8 3-12 3h-18c-13 0-23-11-23-24 1-32 2-91 0-137-2-43 1-119 3-167 1-19 2-33 3-39l75 1z"/>
  <path class="fil10" d="m1236 838l75 1c-1 3-1 17-3 37-25 3-52 4-75 1 1-19 2-33 3-39z"/>
  <path class="fil10" d="m1288 1113c0 24 1 49 1 70 0 5-1 10-1 14-1 2-3 3-5 5 0-5 0-11 1-19 0-21-1-46-1-70-1-30-2-58 0-70 3-26 12-167 14-205h5c-2 38-11 180-14 206-2 12-1 39 0 69z"/>
  <path class="fil3" d="m1258 1225s-5-7-9-7c-4 1-35 24-45 25-10 2-9 9-7 13s83 1 83 1 3-24 0-31c-2-7-14 1-22-1z"/>
  <path class="fil8" d="m1241 1241h1c1-1 1-1 0-2 0 0-3-6-7-8-6-3-10 0-10 0-1 1-1 2-1 2 1 1 2 1 2 1 1 0 4-3 8 0 3 1 6 6 6 6 0 1 0 1 1 1z"/>
  <path class="fil8" d="m1245 1237h1c1 0 1-1 1-2 0 0-3-6-8-8-5-3-10 0-10 0 0 1-1 2 0 2 0 1 1 1 2 1 0 0 3-2 7 0 4 1 6 6 6 6 0 1 1 1 1 1z"/>
  <path class="fil8" d="m1235 1244h1c1 0 1-1 0-2 0 0-3-6-7-8-6-3-10 0-10 0-1 1-1 2-1 2 1 1 2 1 2 1 1 0 4-2 8 0 3 1 6 6 6 6 0 1 0 1 1 1z"/>
  <polygon class="fil7" points="1365 1201 1367 1226 1388 1225 1389 1199"/>
  <path class="fil9" d="m1407 1044c-2 46-1 105 0 137 0 13-10 24-24 24h-17c-4 0-8-1-11-3-2-1-4-2-5-4-5-4-8-10-8-17 1-38 3-111-1-133-3-22-10-121-13-175-1-18-2-31-2-34l75 1c1 4 1 10 1 17 3 43 8 137 5 187z"/>
  <path class="fil10" d="m1402 857c-14 4-42 11-74 16-1-18-2-31-2-34l75 1c1 4 1 10 1 17z"/>
  <path class="fil10" d="m1354 1183c0 8 1 14 1 19-2-1-4-2-5-4-1-4-1-9-1-15-1-21 0-46 1-70 1-30 1-57 0-69-4-26-12-168-14-206h5c2 37 10 179 14 205 1 12 1 40 0 70-1 24-1 49-1 70z"/>
  <path class="fil3" d="m1375 1222s11-3 14-3c2 0 22 22 28 23 12 2 12 20 5 21-21 3-57-6-57-6s-3-23-2-30c2-8 6-3 12-5z"/>
  <path class="fil8" d="m1392 1242h-1c0-1-1-2 0-2 0-1 4-6 8-7 6-3 10 1 10 1 1 0 1 1 0 2h-2s-3-3-7-1c-3 2-7 6-7 6 0 1 0 1-1 1z"/>
  <path class="fil8" d="m1388 1238l-1-1s-1-1 0-2c0 0 4-5 8-7 6-2 10 1 10 1 1 1 1 2 0 2 0 1-1 1-2 1 0 0-3-3-7-1-3 1-7 6-7 6s0 1-1 1z"/>
  <path class="fil8" d="m1398 1246s-1 0-1-1c-1 0-1-1 0-2 0 0 3-5 8-7 6-2 10 1 10 1 0 1 1 2 0 2-1 1-1 1-2 1 0-1-3-3-7-1-4 1-7 6-7 6s-1 0-1 1z"/>
  <path class="fil3" d="m1419 846c-68 17-136 17-204 0 0-24-1-124 1-205v-5-2c0-1 0-2 1-3 1-54 3-98 8-104 10-13 61-35 75-45 1 2 8 12 17 13 10 1 19-10 19-10v-3c14 10 60 30 70 44 11 15 13 278 13 320z"/>
  <path class="fil1" d="m1237 603c-6 8-14 25-18 33-1 1-1 2-1 3l-1 1-1 1v-5-2l3-6c5-9 11-21 15-27 1-1 2-1 3 0v2z"/>
  <path class="fil1" d="m1367 543c-27-1-48-12-61-21-13-10-21-19-21-20v-2h3c0 1 29 38 79 40 1 0 2 1 2 1 0 1-1 2-2 2z"/>
  <path class="fil1" d="m1276 795c-1 0-1-1-1-2-1-1 0-1 1-1 44-3 71-25 85-43 16-20 21-39 21-39 0-1 1-1 2-1s1 1 1 2-5 20-21 40c-15 18-42 41-88 44z"/>
  <path class="fil1" d="m1300 767c-1 0-1 0-2-1 0-1 1-2 1-2 39-10 46-42 46-42 1-1 1-1 2-1s2 1 2 2c-1 0-2 8-9 18-7 9-19 21-40 26z"/>
  <path class="fil7" d="m1468 844c-1 13-9 23-9 32s-10 3-6-14c5-18-2-35-6-35s1 20-3 27c-4 6-7-8-10-16-4-9-2-27 2-40 3-13-13-94-11-117l-6-30-4-17v-18l31-12c1 5 3 11 4 17 0 3 1 6 1 9 5 21 8 43 10 56 4 38-3 115-3 115s11 30 10 43z"/>
  <path class="fil14" d="m1451 630c-7 7-18 18-32 21l-4-17v-18l31-12c1 5 3 11 4 17 0 3 1 6 1 9z"/>
  <path class="fil3" d="m1460 612s-4 5-10 9c-8 6-20 13-35 13-1-50-4-93-8-105 7 8 39 47 53 83z"/>
  <path class="fil1" d="m1394 598c6 8 14 25 18 33 0 1 1 2 1 3l1 1c0 1 1 1 1 1v-2h2c0-1-1-2-2-3-1-2-2-5-3-8-5-9-11-21-16-27 0-1-1-1-2 0-1 0-1 1 0 2z"/>
  <path class="fil9" d="m1365 402c0 27-17 46-44 46-28 0-48-21-48-48s17-48 45-48c33 0 47 22 47 50z"/>
  <path class="fil14" d="m1359 413s8-10 14-1c5 8-3 33-17 27l3-26z"/>
  <path class="fil15" d="m1359 431c1 0 1 0 1-1 3-7 11-11 11-11s1 0 0-1c0-1-1-1-1-1-1 0-9 4-12 12 0 1 0 2 1 2z"/>
  <path class="fil15" d="m1367 427h1c1 0 1-1 0-2 0 0-1-2-4-3h-2c0 1 0 2 1 2 2 1 3 3 3 3h1z"/>
  <path class="fil14" d="m1280 413s-8-10-14-1c-6 8 3 33 17 27l-3-26z"/>
  <path class="fil15" d="m1280 431c-1 0-1 0-2-1-2-7-10-11-10-11s-1 0-1-1c1-1 1-1 2-1 0 0 9 4 12 12 0 1 0 2-1 2z"/>
  <path class="fil15" d="m1271 427c-1 0-1-1-1-2 1 0 2-2 5-3h1c1 1 0 2 0 2-2 1-4 3-4 3h-1z"/>
  <path class="fil7" d="m1300 459v25s8 12 18 13 19-11 19-11v-25l-37-2z"/>
  <path class="fil14" d="m1300 459v11c7 8 19 9 37 7v-16l-37-2z"/>
  <path class="fil7" d="m1363 413c0 5-1 10-2 16-3 18-11 35-27 41-37 13-50-18-55-36-1-2-1-4-2-6-1-5-1-10-2-14 0-6-1-12-1-17 0-11 6-21 17-25 15-6 38-11 59 2 8 4 14 12 14 21 0 5 0 11-1 18z"/>
  <path class="fil9" d="m1339 452c-2 1-3 3-5 3-9 5-10 5-14 5s-9-1-14-4c-2-1-4-3-7-5 0 0-4-13 20-10 24-4 20 8 20 11zm20-38c-2 2-8 23-10 26-5-10-26-3-26-3-1 0-2 1-4 1-1 0-2-1-4-1 0 0-21-7-25 3-2-3-8-23-9-26h-6c1 4 1 9 2 14 1 2 1 4 2 6 5 18 18 49 55 36 16-6 24-23 27-41 1-6 2-11 2-16l-4 1z"/>
  <path class="fil9" d="m1335 417c0 2 2 4 3 4 2 0 3-2 3-4 0-3-1-5-3-5-1 0-3 2-3 5z"/>
  <path class="fil9" d="m1299 416c0 3 1 5 3 5s3-2 3-5c0-2-1-4-3-4s-3 2-3 4z"/>
  <path class="fil9" d="m1350 403s-11-4-20 0l1 4s13-1 19 2c1-2 1-4 0-6z"/>
  <path class="fil9" d="m1292 403s12-4 21 0l-1 4s-13-1-20 2c-1-2-1-4 0-6z"/>
  <path class="fil14" d="m1319 435c-2 0-4-1-4-1-1 0-1-1-1-2h2c1 0 3 1 4 0 1 0 1 0 1-1 0-4-1-17-1-18l1-1c1 0 2 1 2 1 0 1 1 14 0 18 0 2-1 3-1 3-1 1-2 1-3 1z"/>
  <path class="fil8" d="m1335 443c-1 5-4 14-15 14s-14-8-15-14h30z"/>
  <path class="fil9" d="m1275 414h6c-1-6-2-15 3-16 14-5-4-14 2-19s22-3 33-3c11-1 29 0 33 1s2 8 0 13c-1 5 6 11 7 17v7h4c1-7 1-14 1-19 0-9-6-17-14-21-21-13-44-8-59-2-11 4-17 14-17 25 0 5 1 11 1 17z"/>
  <path class="fil8" d="m487 1009h-273c5-27 26-47 52-47h85 85c25 0 47 20 51 47z"/>
  <polygon class="fil8" points="250 1259 236 1259 236 1005 250 1005"/>
  <polygon class="fil8" points="466 1259 451 1259 451 1005 466 1005"/>
  <polygon class="fil0" points="451 1091 250 1091 250 1076 451 1076"/>
  <path class="fil1" d="m284 666s-46 61-52 114c-4 38 52 94 52 94l19-10-19-43c-7-21-15-30-9-51l14-30-5-74z"/>
  <path class="fil1" d="m427 666s45 64 49 118c3 45-52 90-52 90l-16-8 22-44c7-21 10-34 1-57l-12-25 8-74z"/>
  <path class="fil3" d="m293 805l-30 96s131 17 171 6l-21-105 14-136c-19-9-40-14-61-16-31-2-51 3-82 16l9 139z"/>
  <path class="fil1" d="m326 695c29-3 55-23 57-24 0 0 1-1 0-2s-2-1-2 0c-1 0-32 23-63 24 0 0-1 0-1 1s1 2 2 2c2 0 4 0 7-1z"/>
  <polygon class="fil7" points="349 1210 351 1232 374 1232 376 1214"/>
  <path class="fil10" d="m345 874s-58-3-78 13-16 63 5 75c20 13 54 38 54 38l22 217 29 1s27-218 13-260c-13-43-45-84-45-84z"/>
  <path class="fil9" d="m380 1207c1 5 0 10-1 15h-33c-2-5-2-10-1-15h35z"/>
  <path class="fil8" d="m428 872h-153l-14-83c-2-7 4-13 11-13h159c7 0 13 6 11 13l-14 83z"/>
  <path class="fil0" d="m416 890h-129c-7 0-12-5-12-12v-6h153v6c0 7-5 12-12 12z"/>
  <path class="fil0" d="m365 827c0 8-6 14-13 14-8 0-13-6-13-14 0-7 5-13 13-13 7 0 13 6 13 13z"/>
  <polygon class="fil7" points="253 1151 248 1172 268 1176 277 1157"/>
  <path class="fil9" d="m375 870s-39-13-62 15-61 268-61 268l26 11 85-213s69 39 77-16c7-45-65-65-65-65z"/>
  <path class="fil11" d="m284 1153c0 5-2 10-5 14l-33-11c1-6 2-10 4-15l34 12z"/>
  <path class="fil3" d="m264 1168s-13-6-16-7c-4 0-34 21-42 20-16 0-20 23-12 26 26 9 72 7 72 7s11-28 11-37-7-5-13-9z"/>
  <path class="fil8" d="m237 1188h1c1 0 2-1 1-2 0 0-3-8-8-11-6-5-13-2-13-1-1 0-1 1-1 2 1 1 2 1 3 1 0 0 4-2 9 1 4 3 7 9 7 9 0 1 0 1 1 1z"/>
  <path class="fil8" d="m243 1184h1c1 0 2-1 1-2 0-1-3-8-8-11-6-5-12-2-13-2-1 1-1 2 0 3 0 1 1 1 2 1 0-1 4-3 9 1 4 2 7 9 7 9l1 1z"/>
  <path class="fil8" d="m229 1191h1c1 0 2-1 1-2 0 0-3-8-8-11-6-5-12-1-13-1s-1 1 0 2c0 1 1 1 2 1 0 0 4-2 9 1 4 3 7 9 7 9 0 1 0 1 1 1z"/>
  <path class="fil3" d="m360 1231s13-4 16-4c4 0 28 25 36 26 15 2 16 24 7 25-25 4-69-4-69-4s-5-28-4-37c2-9 7-3 14-6z"/>
  <path class="fil8" d="m382 1254h-1c-1-1-1-2-1-3 0 0 4-6 9-9 7-3 13 1 13 1 1 1 1 2 0 3 0 0-2 1-2 0 0 0-4-3-9-1-4 2-8 8-8 8 0 1-1 1-1 1z"/>
  <path class="fil8" d="m377 1249h-1c-1-1-2-2-1-3 0 0 4-6 9-9 7-3 13 1 13 1 1 1 1 2 0 3-1 0-2 1-2 0-1 0-4-3-9-1-4 2-8 8-8 8 0 1-1 1-1 1z"/>
  <path class="fil8" d="m389 1258h-1c-1-1-2-2-1-3 0 0 4-6 9-9 7-3 13 1 13 1 1 1 1 2 0 3s-2 1-2 0c-1 0-4-3-9 0-4 2-8 7-8 7 0 1-1 1-1 1z"/>
  <path class="fil9" d="m394 529s19 29 17 59 3 65-24 63c-27-1-75 11-90-12-16-24 97-110 97-110z"/>
  <path class="fil16" d="m401 582s5 44-16 56c-20 12-35-2-35-2s43-60 51-54z"/>
  <path class="fil14" d="m315 582s-7-10-13-2c-5 9 3 33 16 27l-3-25z"/>
  <path class="fil15" d="m315 599h-1c-2-8-10-11-10-11s-1-1 0-1c0-1 1-1 1-1s9 3 11 12c1 1 0 1 0 1h-1z"/>
  <path class="fil15" d="m307 596v-1c-1 0-1-1 0-1 0 0 1-2 4-4 0 0 1 0 1 1 1 1 0 1 0 1-2 1-4 3-4 3s0 1-1 1z"/>
  <path class="fil14" d="m392 582s7-10 13-2c5 9-3 33-16 27l3-25z"/>
  <path class="fil15" d="m392 599h1c2-8 10-11 10-11s1-1 0-1c0-1 0-1-1-1 0 0-9 3-11 12 0 1 0 1 1 1z"/>
  <path class="fil15" d="m400 596v-1c1 0 1-1 1-1s-2-2-5-4c0 0-1 0-1 1v1c3 1 4 3 4 3s0 1 1 1z"/>
  <path class="fil7" d="m372 627v24s-7 13-17 13c-10 1-18-10-18-10v-25l35-2z"/>
  <path class="fil14" d="m372 627v11c-7 7-18 10-35 7v-16l35-2z"/>
  <path class="fil7" d="m397 566c0 9-1 21-3 30 0 2-1 5-2 6-5 18-17 48-53 36-15-6-22-23-26-41-2-12-2-24-2-33s5-17 13-21c21-12 43-7 57-2 10 4 17 14 16 25z"/>
  <path class="fil9" d="m338 586c0 2-1 4-3 4s-3-2-3-4c0-3 1-5 3-5s3 2 3 5z"/>
  <path class="fil9" d="m374 586c0 2-1 4-3 4-1 0-2-2-2-4 0-3 1-5 2-5 2 0 3 2 3 5z"/>
  <path class="fil9" d="m329 570c3 0 8-1 13-1 1 0 2 1 2 2s-1 2-2 2c-4 0-13 0-18 2 0-1 1-2 1-2 1-1 3-2 4-3z"/>
  <path class="fil9" d="m377 570c-3 0-8-1-13-1-1 0-2 1-2 2s1 2 2 2c4 0 13 0 18 2 0-1-1-1-1-2-1-1-3-2-4-3z"/>
  <path class="fil14" d="m354 605c-1 0-2 0-3-1 0 0-1-1-1-3-1-4 0-17 1-18 0 0 0-1 1-1 0 0 1 1 1 2 0 0-1 13-1 17 0 1 0 1 1 1 1 1 3 0 4 0 1-1 1 0 2 0 0 1 0 2-1 2 0 0-2 1-4 1z"/>
  <path class="fil8" d="m339 612c1 4 4 12 14 12s12-7 13-12h-27z"/>
  <path class="fil14" d="m353 631c-3 0-6-2-6-2v-1c0-1 1-1 2-1 0 0 2 2 4 2s4-2 4-2c1 0 1 0 2 1 0 0 0 1-1 1 0 0-2 2-5 2z"/>
  <path class="fil9" d="m402 564c-1 1-2 2-3 2v8c-2 17-6 20-7 16-1-3-1-19 0-24h-6l-4-16-1 15c-6 2-20-1-20-1l-4-16-3 16c-8 4-19 1-19 1l-3-16-5 16s-19 7-19 0c0-4 3-15 5-23 3-9 9-17 17-21 23-12 47-6 55-1 17 11 17 44 17 44z"/>
  <path class="fil9" d="m318 531s-15 18-20 50-12 55 8 66c21 11 19-12 18-18 0-7-18-24-6-73 4-16 0-25 0-25z"/>
  <path class="fil16" d="m315 597v3 5c1 11 3 29 9 36 2 2 7 4 13 4v-8c-6-3-11-8-14-13-2-5-6-12-8-24v-3z"/>
  <path class="fil8" d="m397 607c0 2-1 3-2 3-2 0-3-1-3-3 0-1 1-2 3-2 1 0 2 1 2 2z"/>
  <path class="fil4" d="m1202 377h-65c-5 0-9-4-9-9v-65c0-5 4-9 9-9h65c5 0 9 4 9 9v65c0 5-4 9-9 9z"/>
  <path class="fil6" d="m1198 335c0 7-2 14-7 19-5 6-13 10-22 10-8 0-16-4-22-10-4-5-6-12-6-19 0-15 13-28 28-28 16 0 29 13 29 28z"/>
  <path class="fil8" d="m1191 354c-5 6-13 10-22 10-8 0-16-4-22-10l1-1c0-1 1-2 2-3s3-2 4-2c5-2 9-3 11-7-3-2-5-4-5-6-4 0-6-6-4-7 0-1 1-1 2-1 0-6 5-11 11-11 7 0 12 5 12 11 1 0 2 0 2 1 2 1 0 7-4 7 0 2-3 4-5 5 3 5 6 6 11 8 1 0 3 1 4 2s1 2 2 3v1z"/>
  <path class="fil4" d="m114 823h-65c-5 0-9-4-9-9v-66c0-5 4-9 9-9h65c5 0 9 4 9 9v66c0 5-4 9-9 9z"/>
  <path class="fil8" d="m81 777c-4 0-7-4-7-8s3-8 7-8c5 0 8 4 8 8s-3 8-8 8zm2-24c-11-1-20 8-20 18 0 4 1 7 3 10 2 4 5 8 7 12l9 16 13-24c1-2 1-3 2-4 2-3 3-7 3-10 0-10-8-17-17-18z"/>
  <path class="fil3" d="m1490 436c7 0 13-5 13-12s-6-13-13-13-13 6-13 13 6 12 13 12zm0-31c10 0 19 8 19 19 0 10-9 18-19 18s-19-8-19-18c0-11 9-19 19-19z"/>
  <path class="fil4" d="m1423 371c7 0 13-6 13-13s-6-13-13-13-13 6-13 13 6 13 13 13zm0-32c10 0 19 9 19 19s-9 19-19 19-19-9-19-19 9-19 19-19z"/>
  <path class="fil3" d="m1400 279c1 0 3 1 3 3v12c0 2-2 3-3 3-2 0-3-1-3-3v-12c0-2 1-3 3-3z"/>
  <path class="fil3" d="m1400 256c1 0 3 1 3 3v13c0 1-2 3-3 3-2 0-3-2-3-3v-13c0-2 1-3 3-3z"/>
  <path class="fil3" d="m1382 274h11c2 0 3 1 3 3 0 1-1 3-3 3h-11c-2 0-3-2-3-3 0-2 1-3 3-3z"/>
  <path class="fil3" d="m1406 274h12c2 0 3 1 3 3 0 1-1 3-3 3h-12c-1 0-3-2-3-3 0-2 2-3 3-3z"/>
  <path class="fil4" d="m1503 351c2 0 3 1 3 3v13c0 2-1 3-3 3s-3-1-3-3v-13c0-2 1-3 3-3z"/>
  <path class="fil4" d="m1503 328c2 0 3 2 3 3v13c0 2-1 3-3 3s-3-1-3-3v-13c0-1 1-3 3-3z"/>
  <path class="fil4" d="m1485 346h11c2 0 3 2 3 3 0 2-1 3-3 3h-11c-2 0-3-1-3-3 0-1 1-3 3-3z"/>
  <path class="fil4" d="m1510 346h11c2 0 3 2 3 3 0 2-1 3-3 3h-11c-2 0-3-1-3-3 0-1 1-3 3-3z"/>
  <path class="fil3" d="m333 172c-8 0-13 6-13 13s5 13 13 13c7 0 12-6 12-13s-5-13-12-13zm0-6c10 0 18 9 18 19s-8 19-18 19c-11 0-19-9-19-19s8-19 19-19z"/>
  <path class="fil4" d="m264 110c-7 0-12 6-12 13s5 13 12 13c8 0 13-6 13-13s-5-13-13-13zm0-6c11 0 19 9 19 19s-8 19-19 19c-10 0-18-9-18-19s8-19 18-19z"/>
  <path class="fil3" d="m240 211c0 2 1 3 3 3h13c1 0 3-1 3-3 0-1-2-3-3-3h-13c-2 0-3 2-3 3z"/>
  <path class="fil3" d="m217 211c0 2 1 3 3 3h13c2 0 3-1 3-3 0-1-1-3-3-3h-13c-2 0-3 2-3 3z"/>
  <path class="fil3" d="m235 193v12c0 1 1 3 3 3 1 0 3-2 3-3v-12c0-1-2-3-3-3-2 0-3 2-3 3z"/>
  <path class="fil3" d="m235 218v11c0 2 1 3 3 3 1 0 3-1 3-3v-11c0-2-2-3-3-3-2 0-3 1-3 3z"/>
  <path class="fil4" d="m377 110c0 2 1 3 3 3h13c1 0 3-1 3-3 0-1-2-3-3-3h-13c-2 0-3 2-3 3z"/>
  <path class="fil4" d="m354 110c0 2 1 3 3 3h13c2 0 3-1 3-3 0-1-1-3-3-3h-13c-2 0-3 2-3 3z"/>
  <path class="fil4" d="m372 92v12c0 1 1 3 3 3 1 0 3-2 3-3v-12c0-1-2-3-3-3-2 0-3 2-3 3z"/>
  <path class="fil4" d="m372 117v11c0 2 1 3 3 3 1 0 3-1 3-3v-11c0-2-2-3-3-3-2 0-3 1-3 3z"/>
  <path class="fil0" d="m1156 201h1c5-2 7-2 7-2 2 0 3-1 2-3 0-1-1-2-2-2s-3 1-8 2c-1 0-2 2-2 3l2 2z"/>
  <path class="fil0" d="m1012 307l-6 12c-1 1-2 2-3 1-2 0-2-2-2-3 3-4 5-8 7-12 1-1 2-2 4-1 1 0 1 2 0 3z"/>
  <path class="fil0" d="m1e3 332c-2 4-3 8-5 12 0 2-2 2-3 2s-2-2-2-3c2-4 4-9 5-13 1-1 2-2 4-1 1 0 2 1 1 3z"/>
  <path class="fil0" d="m979 400c-1-1-2-2-2-3 1-5 2-9 2-14 1-1 2-2 3-2 2 1 3 2 2 3 0 5-1 9-2 14 0 1-1 2-3 2z"/>
  <path class="fil0" d="m989 355c1 0 2 1 2 3-1 2-1 4-2 6s-1 4-2 7c0 1-1 2-3 2-1-1-2-2-2-3 1-3 2-5 2-8 1-2 1-4 2-6 0-1 2-2 3-1z"/>
  <path class="fil0" d="m1020 295c-1 1-2 1-3 1h-1c-1-1-1-2 0-3 2-4 5-8 8-12 1-1 2-1 3 0 2 0 2 2 1 3-3 4-6 7-8 11z"/>
  <path class="fil0" d="m1144 205c-5 1-10 3-14 4-1 1-1 1-2 0 0 0-1 0-1-1-1-1 0-2 1-3 5-2 9-3 14-5 1 0 3 0 3 2 1 1 0 2-1 3z"/>
  <path class="fil0" d="m1104 221c-1 1-2 1-2 0-1 0-1 0-2-1 0-1 0-2 1-3 5-2 9-4 13-6 2-1 3 0 4 1 0 1 0 2-1 3-5 2-9 4-13 6z"/>
  <path class="fil0" d="m1057 253c-1 1-2 1-2 1-1 0-1 0-2-1s-1-2 0-3l12-9c1-1 2-1 3 0s1 2 0 3c-4 3-8 6-11 9z"/>
  <path class="fil0" d="m1079 236h-2s-1 0-1-1c-1-1-1-2 0-3 4-3 8-5 13-8 1 0 2 0 3 1s0 3-1 3c-4 3-8 5-12 8z"/>
  <path class="fil0" d="m1037 273c-1 1-2 1-3 1l-1-1c-1 0-1-2 0-3l10-10c1-1 2-1 3 0s1 2 1 3c-4 3-7 7-10 10z"/>
  <polygon class="fil3" points="1159 185 1154 146 1285 165"/>
  <polygon class="fil1" points="1285 165 1164 195 1163 195 1157 202 1159 185"/>
  <polygon class="fil2" points="1157 202 1168 202 1163 195"/>
  <polygon class="fil3" points="1179 191 1163 195 1188 230 1285 165"/>
</svg>
