<?xml version="1.0" standalone="no"?>
<!DOCTYPE svg PUBLIC "-//W3C//DTD SVG 20010904//EN"
 "http://www.w3.org/TR/2001/REC-SVG-20010904/DTD/svg10.dtd">
<svg version="1.0" xmlns="http://www.w3.org/2000/svg"
 width="1652.000000pt" height="945.000000pt" viewBox="0 0 1652.000000 945.000000"
 preserveAspectRatio="xMidYMid meet">
<metadata>
Created by potrace 1.15, written by Peter Selinger 2001-2017
</metadata>
<g transform="translate(0.000000,945.000000) scale(0.100000,-0.100000)"
fill="#000000" stroke="none">
<path d="M15020 9443 c-486 -23 -938 -147 -1422 -389 -178 -89 -394 -215 -828
-481 -822 -504 -1193 -696 -1765 -915 -1305 -501 -2999 -691 -4615 -517 -473
50 -851 110 -1760 275 -1035 189 -1375 242 -1875 291 -259 25 -994 26 -1210 0
-534 -63 -976 -178 -1420 -372 l-120 -52 -3 -3642 -2 -3641 8255 0 8255 0 0
4318 c0 2375 3 4427 7 4558 l6 240 -99 46 c-272 126 -602 220 -904 258 -147
18 -381 29 -500 23z"/>
</g>
</svg>
