<?xml version="1.0" encoding="UTF-8"?>
<!DOCTYPE svg  PUBLIC '-//W3C//DTD SVG 1.1//EN'  'http://www.w3.org/Graphics/SVG/1.1/DTD/svg11.dtd'>
<svg width="1598px" height="1502px" clip-rule="evenodd" fill-rule="evenodd" image-rendering="optimizeQuality" shape-rendering="geometricPrecision" text-rendering="geometricPrecision" version="1.1" viewBox="0 0 9587 9009" xml:space="preserve" xmlns="http://www.w3.org/2000/svg">
 <defs>
  <style type="text/css">
   <![CDATA[
    .fil26 {fill:black}
    .fil22 {fill:#0F3247}
    .fil10 {fill:#112B46}
    .fil25 {fill:#20318D}
    .fil31 {fill:#2B3BBD}
    .fil15 {fill:#2C2264}
    .fil21 {fill:#3D5E7C}
    .fil32 {fill:#46467F}
    .fil20 {fill:#487596}
    .fil16 {fill:#4D338B}
    .fil13 {fill:#516193}
    .fil14 {fill:#56548C}
    .fil23 {fill:#606BF1}
    .fil33 {fill:#66669E}
    .fil27 {fill:#6F6FA5}
    .fil11 {fill:#878CF0}
    .fil12 {fill:#8FA6B5}
    .fil8 {fill:#A5B7C6}
    .fil1 {fill:#BEE1F4}
    .fil9 {fill:#BFCED8}
    .fil28 {fill:#CECCFF}
    .fil3 {fill:#E56363}
    .fil0 {fill:#E5F3F9}
    .fil30 {fill:#E8F2F9}
    .fil2 {fill:#EC827D}
    .fil6 {fill:#EFBC3F}
    .fil29 {fill:#F4AE92}
    .fil4 {fill:#F99898}
    .fil19 {fill:#FA9887}
    .fil5 {fill:#FBD15B}
    .fil7 {fill:#FCDD92}
    .fil18 {fill:#FF82B1}
    .fil24 {fill:#FFC8AF}
    .fil17 {fill:white}
   ]]>
  </style>
 </defs>
  <path class="fil0" d="m6715 5945c-1018 588-2674 585-3698-7-1025-591-1030-1547-12-2135s2674-585 3699 6c1025 592 1030 1548 11 2136z"/>
  <path class="fil0" d="m4477 6852c-1018 588-2674 585-3698-7-1025-591-1030-1547-12-2135s2674-585 3699 6c1024 592 1030 1548 11 2136z"/>
  <path class="fil0" d="m8827 7620c-1019 588-2675 585-3699-6-1025-592-1030-1548-12-2136s2674-585 3699 7c1025 591 1030 1547 12 2135z"/>
  <path class="fil0" d="m8600 4688c0-294 282-664 531-1092-45 23-88 48-131 73-55 33-110 66-164 100 9-12 19-24 30-35 25-28 55-53 81-80 31-31 58-64 87-96 69-77 146-147 230-209 90-180 165-370 204-568-7 5-13 11-20 17-43 36-85 74-131 106-44 31-92 57-139 83-60 33-119 68-174 106 55-69 115-133 181-192 61-53 125-102 186-155 41-36 81-75 120-115 11-110 9-223-7-338-8 6-16 11-23 17-134 99-278 184-394 303-15 15-29 31-43 47 47-91 106-176 175-252 75-83 162-154 230-242 8-10 16-21 22-31-55-195-150-330-256-423-45 72-83 149-118 225-30 64-59 128-80 194 9-162 60-321 135-468-75-54-154-90-227-113-35 59-65 122-90 185 4-68 13-136 25-204-136-34-240-27-240-27v3184z"/>
  <path class="fil0" d="m8600 4688c0-264-372-595-643-1120 116 35 229 78 338 132 5 2 12 5 17 8-36-66-79-128-134-180-89-85-201-139-308-200-10-5-21-11-31-18-62-159-112-335-139-528 55 18 108 39 159 66 116 63 213 154 312 243-4-6-8-12-11-18-108-160-265-282-427-386-16-10-32-20-47-30-11-122-12-252-3-388 40 21 78 46 115 72 124 85 236 188 333 303-1-3-3-6-4-9-24-57-50-113-82-165-74-118-180-211-279-309-19-19-39-39-58-60 46-169 149-291 270-380 56 65 112 130 162 200 36 51 69 104 98 160-25-149-83-291-159-425 73-41 149-71 219-94 46 73 85 149 115 230 3-87-1-173-16-258 96-23 172-30 203-30v3184z"/>
  <path class="fil1" d="m8630 3610-5-288c49-74 103-146 160-215 61-72 125-142 191-210 67-68 135-134 206-197 70-64 142-127 216-186-76 57-150 116-223 178-73 61-144 125-213 190-69 66-136 134-200 205-48 54-94 110-138 168l-5-340c61-67 122-134 178-205 59-72 114-146 167-222 53-75 103-153 150-233 47-79 92-160 132-243-43 82-91 161-141 238s-102 153-158 226c-55 73-113 145-173 214-50 58-103 113-156 168l-5-260 5 2c33-72 66-144 96-218s59-148 86-222c54-150 103-301 144-454-48 151-103 300-164 446-30 73-61 146-94 218-24 51-49 101-74 152l-12-709-12 715c-66-118-122-242-175-367-60-144-116-291-167-439 45 150 94 299 148 446 27 74 55 147 86 220 31 72 64 144 102 214l4-3-3 231c-36-64-73-127-114-188-53-82-109-162-169-239s-122-153-186-226c-64-74-131-145-200-213 67 70 131 144 192 219 62 76 121 153 177 232 57 79 110 161 160 244 51 82 96 168 138 254l-6 336c-41-60-85-116-132-170-65-73-133-142-205-208-71-65-145-127-221-187-76-59-154-117-235-170 79 56 155 116 228 178 74 62 146 127 214 194 69 68 134 139 195 213 57 70 110 144 155 222l-4 261c-36-41-74-80-114-116-59-52-120-100-184-144-65-44-131-85-199-123s-137-73-208-104c69 34 137 72 203 113 66 40 130 84 191 130 62 47 120 97 176 151 49 48 93 100 134 154l-31 1800h123l-30-1788c112-69 216-148 315-233 105-91 206-186 300-288-99 97-204 187-313 272-96 75-197 144-303 204z"/>
  <path class="fil0" d="m6685 3534s-641-52-979-526c-254-356-35-681 511-413 0 0-816-418-576-885 176-344 628 70 628 70s-791-667-392-939c284-194 523 284 523 284s-143-835 285-835v3244z"/>
  <path class="fil0" d="m6685 290s494-91 303 826c0 0 246-508 548-345 302 162-425 992-425 992s409-413 655-119c247 294-667 965-667 965s393-226 576-28c183 199-538 953-990 953v-3244z"/>
  <path class="fil1" d="m7103 2986c-66 44-135 83-206 119-54 28-110 51-167 72l-13-792c77-32 154-65 227-106 81-44 158-95 232-150 74-54 143-115 209-179 65-64 127-132 181-206-56 72-121 137-188 199-67 61-139 119-214 170-75 52-153 99-234 139-69 36-141 65-214 91l-10-619c73-50 144-103 208-164 36-29 67-64 100-96 30-34 62-67 91-103 59-71 113-145 162-222 50-78 94-158 131-242-40 83-87 161-139 236-51 75-108 147-169 215-30 34-63 66-94 99-34 30-66 63-101 91-60 52-124 97-190 139l-20-1193-19 1195c-66-40-129-82-190-130-69-55-136-113-199-176-63-62-123-128-181-195-57-68-112-139-162-212 47 75 99 148 154 218s114 138 175 203c61 66 126 127 195 185 65 56 135 106 207 152l-10 624c-74-17-146-41-216-72-80-37-158-81-232-130-73-50-144-105-211-163-67-59-132-120-192-187 57 69 120 133 185 194 66 61 135 119 207 172 73 53 149 100 230 141 73 36 149 64 228 85l-13 790c-66-22-132-47-195-76-80-36-159-74-236-118-76-44-151-90-224-139-73-50-145-101-213-157 66 58 136 113 207 165s145 101 220 148 153 89 233 129c67 33 137 62 208 88l-16 922h120l-15-923c63-25 123-53 181-85 70-40 138-82 203-129s127-97 188-150c60-52 118-107 172-165-57 56-117 108-179 158s-126 96-192 140z"/>
  <path class="fil0" d="m2697 4004s-461-166-616-582c-116-312 110-508 459-203 0 0-518-469-249-766 199-218 448 177 448 177s-449-648-101-769c248-86 328 313 328 313s61-643 377-558l-646 2388z"/>
  <path class="fil0" d="m3343 1616s381 31 58 668c0 0 283-325 472-145 190 180-510 646-510 646s383-222 506 43-683 577-683 577 335-88 430 95c95 182-586 594-919 504l646-2388z"/>
  <path class="fil1" d="m3114 3684c-58 19-116 34-175 47-46 9-92 15-138 19l148-586c63-7 127-17 188-33 69-16 136-38 201-64 65-25 128-56 189-90s120-72 175-116c-56 42-116 77-178 109s-126 60-192 83c-65 23-132 43-200 56-58 13-116 20-175 25l115-458c64-23 127-47 187-79 31-15 61-34 92-51 29-19 59-37 88-58 57-40 112-84 163-132 52-47 101-97 145-151-46 52-97 101-150 146s-109 86-167 124c-29 20-59 36-89 54-31 16-61 34-92 47-54 27-111 47-168 65l223-882-252 875c-40-42-79-86-114-133-39-54-78-110-111-169-34-58-66-118-95-180-28-61-55-124-77-188 20 65 44 129 70 191 27 63 56 124 88 185 32 60 68 118 107 175 37 54 78 104 122 153l-131 457c-51-27-100-59-145-96-51-44-100-91-144-142-44-52-85-106-124-162-37-56-73-115-104-175 29 61 62 121 98 179s75 114 118 168c43 53 90 103 141 149 47 41 97 77 151 108l-166 579c-45-29-88-60-129-94-52-43-102-87-150-135-47-47-93-96-137-146-44-51-87-104-126-158 37 56 78 110 120 162 42 53 86 104 132 153 46 50 95 96 146 141 43 38 88 73 135 107l-194 675 88 24 173-682c50-6 101-15 150-27 59-15 118-33 175-55s113-46 167-72c55-27 109-56 160-88-53 30-107 56-163 81-55 24-112 46-169 65z"/>
  <path class="fil0" d="m1996 4942c-136-261-54-719-31-1214-28 41-55 83-82 125-34 54-67 109-100 164 3-15 6-30 10-44 10-37 25-72 36-109 13-41 22-83 33-125 26-100 62-198 108-291-2-202-23-405-80-599-3 8-6 16-9 24-21 53-42 106-68 156-25 47-56 92-86 137-37 56-73 114-105 174 17-86 41-171 73-254 29-75 63-148 93-223 20-51 38-104 54-157-41-103-94-203-162-297-4 8-8 17-12 26-73 149-162 291-211 450-6 20-11 40-16 61-1-103 12-205 39-304 29-108 73-211 93-321 3-13 5-25 6-37-138-148-285-225-422-258-7 84-5 170-2 254 3 70 7 141 18 209-66-149-94-313-95-478-91-13-178-9-254 4-3 68-1 138 6 206-27-63-51-127-71-193-137 33-227 86-227 86l1464 2828z"/>
  <path class="fil0" d="m1996 4942c-121-234-604-358-1086-698 119-24 240-36 361-39 6-1 13-1 19-1-63-42-129-77-202-98-118-35-243-31-365-36-12 0-24-1-36-2-129-113-253-246-366-405 57-9 114-15 171-14 133 2 260 39 389 72-6-4-12-7-18-11-170-92-364-128-556-146-19-2-38-4-56-6-66-103-127-217-181-343 45 1 90 5 135 11 150 19 296 58 435 116-3-2-5-4-8-6-47-39-96-78-148-109-120-71-257-104-390-145-26-9-53-18-79-27-37-171-2-328 65-462 80 32 159 64 235 103 56 28 110 61 162 97-91-121-208-221-337-304 46-70 99-132 151-184 74 43 144 93 208 151-37-78-81-153-133-222 75-64 139-106 166-120l1464 2828z"/>
  <path class="fil1" d="m1527 3971-136-254c9-88 24-176 43-264 21-92 45-184 73-275 28-90 59-180 92-269s68-178 107-265c-42 86-80 173-117 261-36 88-70 177-101 267s-60 182-84 274c-18 70-33 140-45 212l-161-299c24-88 46-175 64-264 19-91 34-182 46-274 13-91 21-183 27-276 5-92 8-184 5-276 0 92-7 184-15 276-10 91-21 183-37 273-16 91-34 181-56 270-18 74-39 148-62 220l-123-228h6c-4-80-8-159-16-238-7-80-15-158-26-237-20-158-46-314-79-469 26 156 45 313 59 471 7 79 12 158 16 237 2 56 3 112 4 169l-337-625 318 641c-112-74-219-159-323-245-120-101-237-206-350-314 108 113 220 223 336 329 58 53 117 105 178 155 60 50 122 99 188 143l3-4 103 207c-61-40-123-79-187-115-85-48-172-93-261-134-88-42-178-80-269-116-90-35-182-68-275-97 92 32 182 68 271 107 90 38 178 80 264 124 87 44 171 92 254 143 83 50 162 105 240 163l149 300c-64-34-130-63-196-90-91-35-184-64-277-90-93-25-188-46-283-65-95-17-190-33-286-43 95 14 190 32 284 54 94 21 187 46 279 74 92 29 183 61 271 99 83 36 164 78 240 126l116 234c-51-20-102-37-155-51-76-19-152-34-230-43-77-10-155-16-232-18-78-2-156-2-233 4 77-2 155 0 232 6s154 15 230 28 151 31 225 53c66 20 129 46 190 76l800 1612 109-57-848-1573c68-113 124-232 173-352 51-129 97-260 133-394-43 132-94 260-152 385-51 111-109 219-176 321z"/>
  <path class="fil0" d="m2651 7464c-401 232-1054 231-1457-3-404-233-406-609-5-841s1054-230 1457 3c404 233 406 609 5 841z"/>
  <path class="fil0" d="m2407 8083c-150 87-396 86-548-1-151-88-152-230-1-317s396-86 548 1c152 88 152 230 1 317z"/>
  <path class="fil0" d="m1027 7839c-75 43-198 43-274-1s-76-114-1-158c76-44 198-43 274 1 76 43 76 114 1 158z"/>
  <path class="fil0" d="m7032 8504c-1018 588-2674 585-3699-7-1025-591-1030-1547-12-2135 1019-588 2675-585 3699 6 1025 592 1030 1548 12 2136z"/>
  <polygon class="fil2" points="6423 3434 6421 4710 4941 5570 4944 4294"/>
  <polygon class="fil3" points="4944 4294 4941 5570 2731 4294 2733 3018"/>
  <polygon class="fil4" points="6423 3434 4944 4294 2733 3018 4213 2158"/>
  <polygon class="fil5" points="3681 5215 3679 5883 2200 6743 2202 6074"/>
  <polygon class="fil6" points="2202 6074 2200 6743 605 5822 607 5154"/>
  <polygon class="fil7" points="3681 5215 2202 6074 607 5154 2086 4294"/>
  <path class="fil8" d="m5765 3145-46 27c9-5 14-15 14-30l46-27c0 15-5 25-14 30z"/>
  <polygon class="fil8" points="5735 2097 5781 2070 5779 3115 5733 3142"/>
  <path class="fil9" d="m5735 1990-1248-721c-13-7-25-8-33-3l-46 27c8-5 20-4 33 3l1248 721c26 14 46 50 46 80l46-27c1-30-20-65-46-80z"/>
  <path class="fil10" d="m5689 2017c26 14 46 50 46 80l-2 1045c0 30-21 41-47 27l-1248-721c-26-15-46-51-46-80l2-1045c0-30 21-42 47-27l1248 721z"/>
  <polygon class="fil11" points="4441 1401 4438 2343 5687 3063 5689 2122"/>
  <path class="fil8" d="m5705 3196v53c0 10-6 19-19 26l1-53c12-7 18-17 18-26z"/>
  <path class="fil8" d="m4792 3741v53c-26 15-67 15-93 0v-53c26 15 67 15 93 0z"/>
  <path class="fil12" d="m3432 3047v-54c0 10 6 20 19 27v53c-13-7-19-17-19-26z"/>
  <polygon class="fil8" points="5687 3222 5686 3275 4792 3794 4792 3741"/>
  <polygon class="fil12" points="4699 3741 4699 3794 3451 3073 3451 3020"/>
  <path class="fil9" d="m5686 3169c26 14 26 38 1 53l-895 519c-26 15-67 15-93 0l-1248-721c-26-15-26-39 0-53l895-519c25-15 66-15 92 0l1248 721z"/>
  <path class="fil8" d="m4674 3304-461-266c-12-7-33-7-46 0l-237 137c-13 7-13 19 0 27l460 265c13 8 33 8 46 0l238-137c13-7 13-19 0-26z"/>
  <polygon class="fil13" points="4452 2529 4452 2543 4368 2592 4368 2578"/>
  <polygon class="fil13" points="4368 2578 4368 2592 4285 2544 4285 2530"/>
  <polygon class="fil10" points="4452 2529 4368 2578 4285 2530 4369 2482"/>
  <polygon class="fil13" points="4558 2591 4558 2604 4474 2653 4474 2639"/>
  <polygon class="fil13" points="4474 2639 4474 2653 4391 2605 4391 2592"/>
  <polygon class="fil10" points="4558 2591 4474 2639 4391 2592 4475 2543"/>
  <polygon class="fil13" points="4664 2652 4664 2665 4580 2714 4580 2701"/>
  <polygon class="fil13" points="4580 2701 4580 2714 4497 2666 4497 2653"/>
  <polygon class="fil10" points="4664 2652 4580 2701 4497 2653 4581 2604"/>
  <polygon class="fil13" points="4770 2713 4770 2726 4685 2775 4686 2762"/>
  <polygon class="fil13" points="4686 2762 4685 2775 4603 2727 4603 2714"/>
  <polygon class="fil10" points="4770 2713 4686 2762 4603 2714 4687 2665"/>
  <polygon class="fil13" points="4875 2774 4875 2787 4791 2836 4791 2823"/>
  <polygon class="fil13" points="4791 2823 4791 2836 4709 2788 4709 2775"/>
  <polygon class="fil10" points="4875 2774 4791 2823 4709 2775 4793 2726"/>
  <polygon class="fil13" points="4982 2835 4981 2849 4897 2897 4898 2884"/>
  <polygon class="fil13" points="4898 2884 4897 2897 4815 2850 4815 2836"/>
  <polygon class="fil10" points="4982 2835 4898 2884 4815 2836 4899 2788"/>
  <polygon class="fil13" points="5087 2896 5087 2910 5003 2959 5003 2945"/>
  <polygon class="fil13" points="5003 2945 5003 2959 4921 2911 4921 2898"/>
  <polygon class="fil10" points="5087 2896 5003 2945 4921 2898 5005 2849"/>
  <polygon class="fil13" points="5193 2958 5193 2971 5109 3020 5109 3006"/>
  <polygon class="fil13" points="5109 3006 5109 3020 5027 2972 5027 2959"/>
  <polygon class="fil10" points="5193 2958 5109 3006 5027 2959 5111 2910"/>
  <polygon class="fil13" points="5299 3019 5299 3032 5215 3081 5215 3068"/>
  <polygon class="fil13" points="5215 3068 5215 3081 5132 3033 5132 3020"/>
  <polygon class="fil10" points="5299 3019 5215 3068 5132 3020 5216 2971"/>
  <polygon class="fil13" points="5405 3080 5405 3093 5321 3142 5321 3129"/>
  <polygon class="fil13" points="5321 3129 5321 3142 5238 3094 5239 3081"/>
  <polygon class="fil10" points="5405 3080 5321 3129 5239 3081 5323 3032"/>
  <polygon class="fil13" points="5617 3202 5617 3216 5533 3264 5533 3251"/>
  <polygon class="fil13" points="5533 3251 5533 3264 5344 3155 5344 3142"/>
  <polygon class="fil10" points="5617 3202 5533 3251 5344 3142 5428 3093"/>
  <polygon class="fil13" points="4451 2653 4451 2666 4367 2715 4367 2702"/>
  <polygon class="fil13" points="4367 2702 4367 2715 4178 2606 4178 2593"/>
  <polygon class="fil10" points="4451 2653 4367 2702 4178 2593 4262 2544"/>
  <polygon class="fil13" points="4557 2714 4557 2727 4473 2776 4473 2763"/>
  <polygon class="fil13" points="4473 2763 4473 2776 4390 2728 4390 2715"/>
  <polygon class="fil10" points="4557 2714 4473 2763 4390 2715 4474 2666"/>
  <polygon class="fil13" points="4662 2775 4662 2788 4579 2837 4579 2824"/>
  <polygon class="fil13" points="4579 2824 4579 2837 4496 2789 4496 2776"/>
  <polygon class="fil10" points="4662 2775 4579 2824 4496 2776 4580 2727"/>
  <polygon class="fil13" points="4768 2836 4768 2850 4685 2898 4685 2885"/>
  <polygon class="fil13" points="4685 2885 4685 2898 4602 2851 4602 2837"/>
  <polygon class="fil10" points="4768 2836 4685 2885 4602 2837 4686 2788"/>
  <polygon class="fil13" points="4874 2898 4874 2911 4791 2960 4791 2946"/>
  <polygon class="fil13" points="4791 2946 4791 2960 4708 2912 4708 2898"/>
  <polygon class="fil10" points="4874 2898 4791 2946 4708 2898 4792 2850"/>
  <polygon class="fil13" points="4980 2959 4980 2972 4896 3021 4897 3007"/>
  <polygon class="fil13" points="4897 3007 4896 3021 4814 2973 4814 2960"/>
  <polygon class="fil10" points="4980 2959 4897 3007 4814 2960 4898 2911"/>
  <polygon class="fil13" points="5086 3020 5086 3033 5002 3082 5002 3068"/>
  <polygon class="fil13" points="5002 3068 5002 3082 4920 3034 4920 3021"/>
  <polygon class="fil10" points="5086 3020 5002 3068 4920 3021 5004 2972"/>
  <polygon class="fil13" points="5192 3081 5192 3094 5108 3143 5108 3130"/>
  <polygon class="fil13" points="5108 3130 5108 3143 5026 3095 5026 3082"/>
  <polygon class="fil10" points="5192 3081 5108 3130 5026 3082 5109 3033"/>
  <polygon class="fil13" points="5298 3142 5298 3155 5214 3204 5214 3191"/>
  <polygon class="fil13" points="5214 3191 5214 3204 5132 3156 5132 3143"/>
  <polygon class="fil10" points="5298 3142 5214 3191 5132 3143 5215 3094"/>
  <polygon class="fil13" points="5404 3203 5404 3217 5320 3265 5320 3252"/>
  <polygon class="fil13" points="5320 3252 5320 3265 5238 3218 5238 3204"/>
  <polygon class="fil10" points="5404 3203 5320 3252 5238 3204 5321 3156"/>
  <polygon class="fil13" points="5510 3265 5510 3278 5426 3327 5426 3313"/>
  <polygon class="fil13" points="5426 3313 5426 3327 5343 3279 5343 3265"/>
  <polygon class="fil10" points="5510 3265 5426 3313 5343 3265 5427 3217"/>
  <polygon class="fil13" points="4344 2715 4344 2728 4260 2777 4260 2764"/>
  <polygon class="fil13" points="4260 2764 4260 2777 4071 2668 4071 2655"/>
  <polygon class="fil10" points="4344 2715 4260 2764 4071 2655 4155 2606"/>
  <polygon class="fil13" points="4450 2776 4450 2789 4366 2838 4366 2825"/>
  <polygon class="fil13" points="4366 2825 4366 2838 4283 2790 4283 2777"/>
  <polygon class="fil10" points="4450 2776 4366 2825 4283 2777 4367 2728"/>
  <polygon class="fil13" points="4556 2837 4556 2851 4472 2899 4472 2886"/>
  <polygon class="fil13" points="4472 2886 4472 2899 4389 2852 4389 2838"/>
  <polygon class="fil10" points="4556 2837 4472 2886 4389 2838 4473 2789"/>
  <polygon class="fil13" points="4662 2898 4661 2912 4578 2960 4578 2947"/>
  <polygon class="fil13" points="4578 2947 4578 2960 4495 2913 4495 2899"/>
  <polygon class="fil10" points="4662 2898 4578 2947 4495 2899 4579 2851"/>
  <polygon class="fil13" points="4768 2960 4768 2973 4684 3022 4684 3008"/>
  <polygon class="fil13" points="4684 3008 4684 3022 4601 2974 4601 2961"/>
  <polygon class="fil10" points="4768 2960 4684 3008 4601 2961 4685 2912"/>
  <polygon class="fil13" points="4873 3021 4873 3034 4790 3083 4790 3069"/>
  <polygon class="fil13" points="4790 3069 4790 3083 4707 3035 4707 3022"/>
  <polygon class="fil10" points="4873 3021 4790 3069 4707 3022 4791 2973"/>
  <polygon class="fil13" points="4979 3082 4979 3095 4896 3144 4896 3131"/>
  <polygon class="fil13" points="4896 3131 4896 3144 4813 3096 4813 3083"/>
  <polygon class="fil10" points="4979 3082 4896 3131 4813 3083 4897 3034"/>
  <polygon class="fil13" points="5085 3143 5085 3156 5002 3205 5002 3192"/>
  <polygon class="fil13" points="5002 3192 5002 3205 4919 3157 4919 3144"/>
  <polygon class="fil10" points="5085 3143 5002 3192 4919 3144 5003 3095"/>
  <polygon class="fil13" points="5191 3204 5191 3218 5107 3266 5108 3253"/>
  <polygon class="fil13" points="5108 3253 5107 3266 5025 3219 5025 3205"/>
  <polygon class="fil10" points="5191 3204 5108 3253 5025 3205 5109 3156"/>
  <polygon class="fil13" points="5403 3327 5403 3340 5319 3389 5319 3375"/>
  <polygon class="fil13" points="5319 3375 5319 3389 5131 3280 5131 3266"/>
  <polygon class="fil10" points="5403 3327 5319 3375 5131 3266 5215 3218"/>
  <polygon class="fil13" points="4343 2838 4343 2852 4259 2900 4259 2887"/>
  <polygon class="fil13" points="4259 2887 4259 2900 3964 2730 3964 2717"/>
  <polygon class="fil10" points="4343 2838 4259 2887 3964 2717 4048 2668"/>
  <polygon class="fil13" points="4449 2899 4449 2913 4365 2961 4365 2948"/>
  <polygon class="fil13" points="4365 2948 4365 2961 4282 2914 4282 2900"/>
  <polygon class="fil10" points="4449 2899 4365 2948 4282 2900 4366 2852"/>
  <polygon class="fil13" points="4555 2960 4555 2974 4471 3022 4471 3009"/>
  <polygon class="fil13" points="4471 3009 4471 3022 4388 2975 4388 2961"/>
  <polygon class="fil10" points="4555 2960 4471 3009 4388 2961 4472 2913"/>
  <polygon class="fil13" points="4661 3022 4661 3035 4577 3084 4577 3070"/>
  <polygon class="fil13" points="4577 3070 4577 3084 4494 3036 4494 3023"/>
  <polygon class="fil10" points="4661 3022 4577 3070 4494 3023 4578 2974"/>
  <polygon class="fil13" points="4767 3083 4767 3096 4683 3145 4683 3132"/>
  <polygon class="fil13" points="4683 3132 4683 3145 4600 3097 4600 3084"/>
  <polygon class="fil10" points="4767 3083 4683 3132 4600 3084 4684 3035"/>
  <polygon class="fil13" points="4873 3144 4872 3157 4789 3206 4789 3193"/>
  <polygon class="fil13" points="4789 3193 4789 3206 4706 3158 4706 3145"/>
  <polygon class="fil10" points="4873 3144 4789 3193 4706 3145 4790 3096"/>
  <polygon class="fil13" points="4979 3205 4979 3219 4895 3267 4895 3254"/>
  <polygon class="fil13" points="4895 3254 4895 3267 4812 3219 4812 3206"/>
  <polygon class="fil10" points="4979 3205 4895 3254 4812 3206 4896 3157"/>
  <polygon class="fil13" points="5085 3266 5084 3280 5001 3328 5001 3315"/>
  <polygon class="fil13" points="5001 3315 5001 3328 4918 3281 4918 3267"/>
  <polygon class="fil10" points="5085 3266 5001 3315 4918 3267 5002 3219"/>
  <polygon class="fil13" points="5296 3389 5296 3402 5213 3451 5213 3437"/>
  <polygon class="fil13" points="5213 3437 5213 3451 5024 3342 5024 3328"/>
  <polygon class="fil10" points="5296 3389 5213 3437 5024 3328 5108 3280"/>
  <polygon class="fil13" points="4024 2778 4024 2791 3940 2840 3940 2827"/>
  <polygon class="fil13" points="3940 2827 3940 2840 3857 2792 3857 2779"/>
  <polygon class="fil10" points="4024 2778 3940 2827 3857 2779 3941 2730"/>
  <polygon class="fil13" points="4130 2839 4130 2852 4046 2901 4046 2888"/>
  <polygon class="fil13" points="4046 2888 4046 2901 3963 2853 3963 2840"/>
  <polygon class="fil10" points="4130 2839 4046 2888 3963 2840 4047 2791"/>
  <polygon class="fil13" points="4236 2900 4236 2914 4152 2962 4152 2949"/>
  <polygon class="fil13" points="4152 2949 4152 2962 4069 2915 4069 2901"/>
  <polygon class="fil10" points="4236 2900 4152 2949 4069 2901 4153 2853"/>
  <polygon class="fil13" points="4766 3206 4766 3219 4682 3268 4682 3255"/>
  <polygon class="fil13" points="4682 3255 4682 3268 4175 2976 4175 2962"/>
  <polygon class="fil10" points="4766 3206 4682 3255 4175 2962 4259 2914"/>
  <polygon class="fil13" points="4872 3267 4872 3281 4788 3329 4788 3316"/>
  <polygon class="fil13" points="4788 3316 4788 3329 4705 3282 4705 3268"/>
  <polygon class="fil10" points="4872 3267 4788 3316 4705 3268 4789 3219"/>
  <polygon class="fil13" points="4978 3328 4978 3342 4894 3391 4894 3377"/>
  <polygon class="fil13" points="4894 3377 4894 3391 4811 3343 4811 3330"/>
  <polygon class="fil10" points="4978 3328 4894 3377 4811 3330 4895 3281"/>
  <polygon class="fil13" points="5190 3451 5190 3464 5106 3513 5106 3500"/>
  <polygon class="fil13" points="5106 3500 5106 3513 4917 3404 4917 3391"/>
  <polygon class="fil10" points="5190 3451 5106 3500 4917 3391 5001 3342"/>
  <polygon class="fil1" points="4585 2301 5551 2859 5551 2163 5551 2163 4585 1606"/>
  <polygon class="fil2" points="5486 2230 5141 2030 5141 2515 5486 2714"/>
  <polygon class="fil11" points="4681 1793 5068 2017 5068 1988 4681 1765"/>
  <polygon class="fil11" points="4681 1859 5068 2082 5068 2054 4681 1830"/>
  <polygon class="fil11" points="4681 1925 5068 2148 5068 2120 4681 1896"/>
  <polygon class="fil11" points="4681 1990 5068 2214 5068 2185 4681 1962"/>
  <polygon class="fil11" points="4681 2056 5068 2279 5068 2251 4681 2027"/>
  <polygon class="fil11" points="4681 2122 5068 2345 5068 2317 4681 2093"/>
  <polygon class="fil11" points="4681 2253 4950 2408 4950 2380 4681 2224"/>
  <polygon class="fil11" points="4681 2187 5068 2411 5068 2382 4681 2159"/>
  <polygon class="fil14" points="5284 2157 5182 2302 5386 2420"/>
  <path class="fil2" d="m5192 2300 181 104-91-233-90 129zm208 135-228-131 114-162 114 293z"/>
  <polygon class="fil14" points="5366 2246 5264 2392 5468 2509"/>
  <path class="fil2" d="m5274 2389 180 105-90-233-90 128zm207 136-227-131 114-162 113 293z"/>
  <path class="fil14" d="m5445 2544c0 51-35 71-79 46s-80-87-80-138c0-50 36-71 80-46 44 26 79 87 79 138z"/>
  <path class="fil2" d="m5330 2402c-6 0-12 2-17 5-13 7-20 23-20 45 0 49 34 108 76 132 19 11 37 13 50 6 13-8 20-24 20-46 0-48-35-107-77-132-11-6-22-10-32-10zm71 206c-12 0-25-4-39-12-45-26-83-91-83-144 0-27 10-47 27-57s40-8 63 5c46 27 83 91 83 144 0 27-9 48-26 58-8 4-16 6-25 6z"/>
  <path class="fil12" d="m1684 5420-134-78c-16-9-26-29-26-58l134 78c0 29 10 49 26 58z"/>
  <path class="fil9" d="m2388 2628 134 78c-16-9-39-8-64 7l-134-79c25-14 47-15 64-6z"/>
  <polygon class="fil12" points="1532 5279 1528 3217 1645 3286 1650 5348"/>
  <path class="fil9" d="m1519 3203 5 2081 134 78-4-2081-135-78zm17 29 101 58 4 2043-101-58-4-2043z"/>
  <polygon class="fil9" points="1743 3125 1609 3047 2324 2634 2458 2713"/>
  <path class="fil9" d="m1654 3281-135-78c0-57 40-127 90-156l134 78c-49 29-90 99-89 156z"/>
  <path class="fil15" d="m2458 2713c50-29 90-6 91 51l4 2082c0 57-40 126-90 155l-715 413c-49 29-90 5-90-52l-4-2081c-1-57 40-127 89-156l715-412z"/>
  <polygon class="fil11" points="2504 2970 1699 3435 1702 5074 2508 4609"/>
  <path class="fil14" d="m2163 4888c-50 29-90 99-90 156s41 80 90 52c50-29 91-99 90-156 0-57-40-80-90-52z"/>
  <path class="fil16" d="m2115 2963c-11 6-19 21-19 33 0 13 9 18 19 12 11-7 19-22 19-34s-8-17-19-11z"/>
  <path class="fil16" d="m2195 2999-160 92c-10 6-17 19-17 30s8 16 17 10l160-92c10-6 18-19 18-31 0-11-8-15-18-9z"/>
  <path class="fil17" d="m1561 3637 22-13c4-3 10-2 17 1l-22 13c-7-3-13-4-17-1z"/>
  <path class="fil17" d="m1617 3682-22 13c4-3 6-8 6-15 0-16-10-34-23-42l22-13c13 8 24 26 24 42 0 7-3 12-7 15z"/>
  <path class="fil9" d="m1578 3638c13 8 23 26 23 42 0 15-10 21-24 13-13-7-23-26-23-41s11-21 24-14z"/>
  <path class="fil17" d="m1560 3758 23-13c4-2 10-2 17 2l-23 13c-6-4-12-4-17-2z"/>
  <path class="fil17" d="m1616 3803-22 13c4-2 7-8 7-15 0-15-11-34-24-41l23-13c13 7 23 26 23 41 0 7-2 13-7 15z"/>
  <path class="fil9" d="m1577 3760c13 7 24 26 24 41s-11 21-24 13c-13-7-24-26-24-41s11-21 24-13z"/>
  <path class="fil17" d="m1610 3556-22 13c3-1 4-4 4-9l23-13c0 5-2 8-5 9z"/>
  <polygon class="fil17" points="1592 3457 1615 3444 1615 3547 1592 3560"/>
  <path class="fil17" d="m1568 3431 23-13c2-1 6-1 10 1l-23 13c-4-2-7-2-10-1z"/>
  <path class="fil17" d="m1578 3432 23-13c7 5 14 16 14 25l-23 13c1-9-6-20-14-25z"/>
  <path class="fil9" d="m1578 3432c8 5 15 16 14 25v103c0 9-6 13-14 8-8-4-14-15-14-25v-103c0-9 6-13 14-8z"/>
  <polygon class="fil14" points="1847 3591 1847 3853 2237 3628 2236 3366"/>
  <path class="fil5" d="m2184 3279c-14 8-25 28-25 43 0 16 11 23 25 15l72-42c14-8 25-27 25-43s-11-22-25-14l-72 41z"/>
  <path class="fil1" d="m2281 3252c0-16-11-22-25-14l-72 41c-14 8-25 28-25 43 0 16 11 23 25 15l72-42c14-8 25-27 25-43zm-434 601 390-225-1-262-389 225v262zm463-183-536 310-1-492 536-310 1 492z"/>
  <path class="fil1" d="m2238 4028-269 155v17l269-155v-17zm0-53-269 155v17l269-155v-17zm0 106-201 116v17l201-116v-17zm0-160-269 156v17l269-156v-17zm-1-160-269 156v17l269-156v-17zm0 107-269 155 1 17 268-155v-17zm0-53-269 155v17l269-155v-17z"/>
  <polygon class="fil18" points="3997 5989 3978 5978 4599 6171 4618 6182"/>
  <polygon class="fil19" points="2926 6053 2907 6041 3528 6238 3547 6249"/>
  <polygon class="fil19" points="3997 5989 3978 5978 4596 5066 4615 5077"/>
  <polygon class="fil3" points="3997 5989 4615 5077 4618 6182"/>
  <polygon class="fil18" points="3773 6320 3754 6309 3978 5978 3997 5989"/>
  <polygon class="fil18" points="3547 6249 3528 6238 3754 6309 3773 6320"/>
  <polygon class="fil18" points="2929 7157 2910 7146 3528 6238 3547 6249"/>
  <polygon class="fil2" points="3997 5989 4618 6182 2929 7157 3547 6249 3773 6320"/>
  <polygon class="fil3" points="2926 6053 3547 6249 2929 7157"/>
  <polygon class="fil4" points="4615 5077 3997 5989 3773 6320 3547 6249 2926 6053"/>
  <polygon class="fil4" points="2929 7157 2910 7146 2907 6041 2926 6053"/>
  <polygon class="fil2" points="2926 6053 2907 6041 4596 5066 4615 5077"/>
  <path class="fil14" d="m5479 6238c-19 0-36-14-39-33l-317-1894c-4-21 11-41 32-45 22-3 42 11 46 32l317 1894c3 21-11 42-33 45-2 1-4 1-6 1z"/>
  <path class="fil14" d="m6022 5924c-19 0-36-13-39-32l-317-1894c-4-21 11-42 32-45 22-4 42 11 45 32l318 1894c3 21-11 41-33 45h-6z"/>
  <path class="fil14" d="m5205 4599c-14 0-27-7-35-20-10-19-4-43 15-54l543-313c19-11 43-4 53 14 11 19 5 43-14 54l-543 314c-6 3-13 5-19 5z"/>
  <path class="fil14" d="m5262 4945c-13 0-26-7-34-20-10-19-4-43 15-53l543-314c18-11 43-4 53 15 11 18 5 42-14 53l-543 314c-6 3-13 5-20 5z"/>
  <path class="fil14" d="m5320 5291c-13 0-26-7-34-20-10-19-4-43 15-53l543-314c18-11 42-4 53 15 11 18 5 42-14 53l-543 314c-6 3-13 5-20 5z"/>
  <path class="fil14" d="m5378 5637c-13 0-26-7-34-20-11-18-4-42 15-53l543-314c18-11 42-4 53 15 11 18 5 42-14 53l-543 314c-6 3-13 5-20 5z"/>
  <path class="fil14" d="m5436 5983c-13 0-26-7-34-20-11-18-4-42 15-53l543-314c18-11 42-4 53 15 11 18 5 43-14 53l-543 314c-6 3-13 5-20 5z"/>
  <polygon class="fil20" points="8263 6370 8912 5994 8911 6091 8263 6468"/>
  <polygon class="fil21" points="7477 5916 8125 5540 8912 5994 8263 6370"/>
  <polygon class="fil10" points="8263 6370 8263 6468 7477 6014 7477 5916"/>
  <polygon class="fil20" points="8315 5697 8396 5650 8395 6040 8314 6087"/>
  <polygon class="fil10" points="8315 5697 8314 6087 7988 5898 7989 5508"/>
  <polygon class="fil22" points="7989 5508 8070 5461 8396 5650 8315 5697"/>
  <polygon class="fil21" points="6821 2875 6902 2828 9572 4369 9491 4416"/>
  <polygon class="fil21" points="9491 4416 9572 4369 9568 6326 9487 6373"/>
  <polygon class="fil10" points="9491 4416 9487 6373 8315 5697 7989 5508 6817 4832 6821 2875"/>
  <polygon class="fil11" points="6932 4617 6936 3073 9376 4482 9373 6026"/>
  <path class="fil20" d="m8240 5478-143-82c-26-15-48-3-48 28s21 68 48 83l142 82c27 16 49 3 49-27 0-31-22-68-48-84z"/>
  <polygon class="fil5" points="8169 4337 8167 4867 7706 4601 7707 4070"/>
  <path class="fil10" d="m7772 3893c9 5 16 17 16 28 0 10-7 14-16 9s-16-18-16-28 8-14 16-9z"/>
  <path class="fil1" d="m7643 3855c9 5 16 1 16-9s-7-22-16-27c-8-6-15-1-16 9 0 10 7 22 16 27zm129 75c9 5 16 1 16-9 0-11-7-23-16-28-8-5-16-1-16 9s7 23 16 28zm-64-38c9 6 16 1 16-9s-7-22-16-27-16-1-16 9 7 22 16 27zm976 498c17 10 30 33 30 53v144c0-18-12-39-28-48l-1062-613c-16-9-28-2-28 16v-145c0-19 14-27 31-17l1057 610z"/>
  <path class="fil17" d="m8524 4962v-21l-250-145v21l250 145zm85-150v-21l-334-194v21l334 194zm0 132v-21l-335-193v21l335 193zm1-331v-21l-335-194v21l335 194zm-1 132v-21l-334-193v21l334 193zm1-66v-21l-335-193v21l335 193zm-1 199v-21l-335-193v21l335 193zm-442-11 2-530-462-267-1 531 461 266zm519-328c16 9 28 30 28 48l-2 694c0 18-13 25-28 16l-1062-613c-16-9-28-31-28-48l2-694c0-18 12-25 28-16l1062 613z"/>
  <path class="fil18" d="m7643 3819c9 5 16 17 16 27s-7 14-16 9-16-17-16-27c1-11 8-15 16-9z"/>
  <path class="fil23" d="m7708 3856c9 5 16 17 16 27s-7 15-16 9c-9-5-16-17-16-27s7-14 16-9z"/>
  <path class="fil11" d="m8274 4817 250 145v-21l-250-145v21zm0-132 335 193v-21l-335-193v21zm0 66 335 193v-21l-335-193v21zm1-265 335 193v-21l-335-193v21zm0-88v21l335 194v-21l-335-194zm0 154 334 193v-21l-334-193v21zm0 66 334 194v-21l-334-194v21z"/>
  <polygon class="fil14" points="7858 4190 7756 4335 7960 4453"/>
  <path class="fil17" d="m7766 4333 181 104-90-233-91 129zm208 135-228-131 114-162 114 293z"/>
  <path class="fil2" d="m8067 4511c0 50-35 71-79 46-44-26-80-88-80-138 0-51 36-72 80-46 44 25 79 87 79 138z"/>
  <path class="fil17" d="m7952 4369c-6 0-12 1-17 4-13 8-20 24-20 46 0 48 34 107 76 132 19 11 37 13 50 5 12-7 20-23 20-45 0-49-35-108-77-132-11-7-22-10-32-10zm71 205c-12 0-25-4-39-12-45-26-83-90-83-143 0-27 10-48 27-58s40-8 63 6c46 26 83 91 83 144 0 27-9 47-26 57-8 4-16 6-25 6z"/>
  <path class="fil23" d="m7865 4586c0 33-23 46-51 30-29-17-52-57-52-90s23-47 52-30c28 16 51 57 51 90z"/>
  <path class="fil17" d="m7790 4496c-3 0-7 0-10 2-7 4-11 14-11 28 0 31 21 68 48 84 12 6 22 8 30 3 7-4 12-14 12-27 0-31-22-69-49-84-7-4-14-6-20-6zm47 134c-9 0-18-3-27-8-31-18-55-60-55-96 0-19 6-33 18-40s28-5 44 4c31 18 55 60 55 96 0 18-6 32-18 39-5 3-11 5-17 5z"/>
  <path class="fil10" d="m7145 6430v13c26 15 83 7 99 0 10-15 37-11 52-5 58 5 79-4 98-18 10-7 27-25 25-45-69 16-274 55-274 55z"/>
  <path class="fil14" d="m7244 6330s63 18 100 23c38 5 64-1 73 13 9 13-11 48-43 59-33 12-101-2-126 4-25 5-88 17-103 1-15-15 0-91 0-91l99-9z"/>
  <path class="fil14" d="m6893 6247 113-127c45-13 93-15 87 26-5 37-64 53-105 89l-37 33c-27 24-61 3-58-21z"/>
  <path class="fil24" d="m7617 4621c24-15 57-48 68-75 9-23 18-47 20-72 1-22-5-45-16-64-1-1-2-3-4-4-5-4-12 3-15 9-21 32-39 67-64 96 2-11 6-24 11-34 8-17-6-16-6-16-10 6-37 50-41 67s-14 59-14 59l5 5c-4 5-7 9-7 9s46 31 63 20z"/>
  <path class="fil25" d="m6903 4725s-157 57-35 218l35-218z"/>
  <path class="fil24" d="m7001 4409c34-5 79-6 112 3 54 16 84 51 97 103 14 52 17 139-12 188-19 30-61 24-90 16-36-9-83-25-113-47-41-31-62-99-65-148-2-42 20-106 71-115z"/>
  <path class="fil24" d="m7e3 4661c5 5 9 9 14 13 30 22 58 36 94 45 5 2 12 3 18 4l-3 33c-38 10-75-6-102-13-19-5-50-10-50-31l29-51z"/>
  <path class="fil14" d="m6959 4419c-33 22-31 71-29 105 3 49 24 117 65 148 23 17 24 19 54 29 3-2 10-7 18-12 17-13 25-35 19-55-6-19-7-43 4-49 18-10 31 25 31 25 10-4 26-16 17-37s0-43 0-43c33 1 48-43 58-49 22-13 29-17 26-38-3-14-8-27-18-37-12-10-50-25-65-29-90-22-160-6-180 42z"/>
  <path class="fil10" d="m6951 6268 37-33c41-36 100-52 105-89 1 3 1 7 0 12-5 37-64 53-105 89l-37 33c-32 28-65 8-58-33-3 24 31 45 58 21z"/>
  <path class="fil15" d="m6894 5367c-39 55 59 208 32 399-18 129-53 346-45 468 1 22 89 38 112-70 40-183 91-298 108-440l-9-413-198 56z"/>
  <path class="fil15" d="m7019 5347c-11 171 112 381 104 520-9 143 7 316 7 471 0 0 127 60 132-33 19-303 77-397-1-951l-242-7z"/>
  <path class="fil2" d="m7248 5181c4-165-27-328-27-328-15-22-33-40-54-55l-40-49c-52-13-102-28-151-46l-73 22c-60 25-80 102-53 179-1 4 60 179 67 243 1 7-45 178-55 248 0 0 44 40 56 50 88 110 378-24 389-82 4-22-32-90-59-182z"/>
  <path class="fil2" d="m7150 4968c-58 1-109-77-77-126 11-17 22-32 41-38 48-13 192 20 284 22 74-89 155-248 155-248 57 4 73 45 73 45-124 319-164 324-171 331s-304 14-305 14z"/>
  <path class="fil26" d="m8278 7306c1 5 1 9 0 14v-14z"/>
  <path class="fil26" d="m8278 7502c1 3 1 7 0 11v-11z"/>
  <path class="fil14" d="m8278 7502v11c-2 45-32 89-91 123l-2286 1320c-122 71-321 71-443 0l-1604-926c-62-36-92-83-91-129v-1-194c0 46 30 92 91 127l1604 926c122 70 321 70 443 0l2286-1320c57-33 88-76 91-119v182z"/>
  <path class="fil27" d="m7726 6917 171 99 290 168c59 33 89 77 91 122v14c-3 43-34 86-91 119l-2286 1320c-122 70-321 70-443 0l-1604-926c-61-35-91-81-91-127-1-46 30-93 91-128l2287-1321c122-70 321-70 442 0l461 266-171 99-511-295-2218 1280 1706 984 2217-1280-511-295 170-99z"/>
  <polygon class="fil17" points="7556 7016 7556 7016 6873 6622 6362 6327 4144 7607 5850 8591 8067 7311"/>
  <path class="fil2" d="m7555 6593-1 220c0-11-7-22-22-31-30-17-78-17-107 0-15 9-22 20-22 31v-220c0-11 8-22 22-31 30-17 78-17 108 0 15 9 22 20 22 31z"/>
  <path class="fil2" d="m7764 6662v220c-1 38-26 76-76 105l1-220c50-29 75-67 75-105z"/>
  <polygon class="fil2" points="7689 6767 7689 6987 7628 7022 7629 6802"/>
  <path class="fil2" d="m7710 7019c-53 31-138 31-191 0l-776-448c-27-15-40-35-40-55v45c0 20 13 40 39 56l777 448c52 30 138 30 190 0l147-86 1-45-147 85z"/>
  <path class="fil4" d="m7425 6624c30 17 78 17 108 0 29-17 29-45 0-62-30-17-78-17-108 0-29 17-29 45 0 62zm204 178 228 132-147 85c-53 31-138 31-191 0l-776-448c-53-30-53-80-1-110l148-86 228 132 61-35c100-58 263-58 364 0l145 84c101 58 102 152 1 211l-60 35z"/>
  <path class="fil28" d="m4846 7406 876 505 46-26-876-506-46 27zm251-146 1369 791 46-27-1369-790-46 26zm250-145 1369 790 46-27-1369-790-46 27zm251-146 1369 790 46-26-1369-791-46 27zm297-172-47 27 1369 790 46-27-1368-790zm1358 494-847-489-46 27 847 488 46-26z"/>
  <path class="fil14" d="m6182 3927c3-10 6-19 10-29 2-3 3-6 6-8 10-7 39 3 49 8 39 17 61 62 85 96s48 69 77 100c38 41-8 58-66 56-39-1-66-33-94-55-22-18-58-22-75-46-12-18-9-42-4-64 4-20 7-39 12-58z"/>
  <path class="fil14" d="m5919 4127c3-10 6-20 10-30 2-3 3-6 6-8 10-7 40 4 50 8 41 18 63 64 88 99s49 70 78 102c40 42-7 59-67 57-40-1-68-33-96-56-23-18-60-22-77-47-12-18-9-43-5-65 5-21 8-41 13-60z"/>
  <path class="fil10" d="m5542 3364s398 185 458 283c61 98 52 494 52 494-93 39-143 0-143 0-51-261-64-370-64-370-295-136-388-170-303-407z"/>
  <path class="fil10" d="m5782 3327s358 78 451 138c92 59 64 459 64 459-69 38-128 0-128 0-26-197-57-290-57-290 1 0-314-71-407-117-147-72 34-199 77-190z"/>
  <path class="fil14" d="m5857 2744c45 21 41 336 44 373 2 37 193 278 193 278-24 53-95 62-95 62-10-13-162-169-220-279-57-110-38-489 78-434z"/>
  <path class="fil17" d="m5818 2724c-89-4-247 41-316 128s-26 195-2 288c23 93-6 263-6 285 106 71 293 7 322-98 13-115-9-96-10-163 4-144 131-396 12-440z"/>
  <path class="fil14" d="m5740 2745c47 203 13 381 3 467s39 294 39 294c69-35 80-96 77-125-20-202-23-240-22-246 13-109 56-191 52-295-3-103-71-116-71-116h-86l8 21z"/>
  <path class="fil29" d="m5617 2662s7 84-15 115c-2 21 57 108 116 93 34-8 30-48 30-48-3-31 1-105 1-105l-132-55z"/>
  <path class="fil14" d="m5598 2764c69 147 43 238 40 360-3 121-66 462-66 462-121-30-159-57-182-98 52-237 46-539 61-636 13-77 147-88 147-88z"/>
  <path class="fil10" d="m5587 3503c7-43 16-98 25-153-39-49-74-99-76-116-2-37 44-353 0-375-36-17-67 8-91 55-6 91-9 240-26 389 45 81 126 160 168 200z"/>
  <path class="fil30" d="m5614 2744c-1 3-16 20-16 20s30 66 41 95 39 54 39 54l40-43c-54-29-104-126-104-126z"/>
  <path class="fil30" d="m5744 2766c-4-5-13 82-26 104 25 24 40 31 40 31s15-98-14-135z"/>
  <path class="fil24" d="m5855 2556s-4 53-12 93c-14 66-37 117-78 135-41 17-102-14-129-50s-33-107-20-171c14-64 57-136 147-111 91 25 92 104 92 104z"/>
  <path class="fil15" d="m5860 2591c3 39-126 24-160 10-8 34-20 49-32 52s-25 57-32 75c-47-50-43-120-37-202 5-81 76-79 76-79 48 7 176 35 185 144z"/>
  <path class="fil15" d="m5636 2489c34-60 170-77 224 18s-19 93-19 93l-205-111z"/>
  <path class="fil24" d="m5674 2656c7-39 2-55-19-46-20 10-26 59 0 66s19-20 19-20z"/>
  <path class="fil23" d="m6173 3451-224-130-378 219-29 4v8c0 3 1 5 4 7l228 132c7 4 19 3 27-1l378-219c5-3 7-6 7-10v-12l-13 2z"/>
  <path class="fil31" d="m6179 3459-378 218c-8 5-20 5-27 1l-232-134 407-235 232 134c7 4 6 11-2 16z"/>
  <path class="fil28" d="m6179 3459-378 218c-8 5-20 5-27 1l-232-134 407-235 232 134c7 4 6 11-2 16z"/>
  <polygon class="fil15" points="6158 3455 5790 3668 5680 3605 6049 3392"/>
  <path class="fil23" d="m5896 3447-88 51c-5 3-13 3-17 1l-42-25c-5-2-4-6 1-9l88-51c5-3 12-3 17-1l42 25c4 2 3 6-1 9z"/>
  <path class="fil23" d="m6179 3459-378 218 134-281c4-9 14-19 20-23l356-206c7-4 9 0 5 9l-137 283z"/>
  <path class="fil24" d="m5685 3419s29 13 53 20c23 8 49 23 61 30 12 6 2 13-14 13s-40-8-40-8 37 16 49 22c13 6 41 27 41 34-1 7-25-3-25-3s12 8 15 15c4 7-7 12-19 7-13-5-51-18-51-18s39 19 44 26-9 12-24 5-42-17-42-17 28 14 31 21c3 6-13 6-28 0-15-7-76-41-90-55s-27-44-27-44l66-48z"/>
  <path class="fil14" d="m5521 2802c45 22-2 338 1 376 3 37 172 231 172 231-25 53-95 62-95 62-10-13-141-122-198-232s5-491 120-437z"/>
  <path class="fil2" d="m2790 3402s-159 112-226 149c-66 38-311-107-311-107s-51 16-35 73c170 115 297 179 347 167 51-11 192-70 243-98 52-27 53-191-18-184z"/>
  <path class="fil15" d="m2819 5135c-3 46-8 92-8 92h-10s0-70-11-55c2-38 29-37 29-37z"/>
  <path class="fil24" d="m2677 5213c-5 0-12-5-18-13 11-13 21-25 28-35 22-30 58-98 60-129 1-31-17-351-22-390s-20-187-19-196c2-8 138 53 138 53-2 12-20 88-13 138 8 49 20 82 13 163-7 80-46 210-33 271 1 1 1 2 1 3-40 55-54 162-135 135z"/>
  <path class="fil15" d="m2659 5200c6 8 13 13 18 13 81 27 95-80 135-135 13 58 7 65-3 74-11 8-49 54-55 87-7 32-109 28-128 22-13-5 10-34 33-61z"/>
  <path class="fil24" d="m2959 4779c3 35 24 311 21 357-2 29-15 73-24 108-5 23-8 42-5 51 8 23 9 93 47 78 38-16 63-65 55-119-7-54 2-80 0-113-3-32 19-233 22-304 4-72-20-106-22-154-1-47 13-147 13-147s-164-86-151 18c14 104 40 189 44 225z"/>
  <path class="fil15" d="m3128 3988c23 102-31 170-40 193-10 23 21 311 21 311-86 120-388 46-437-29 7-178 24-468 22-499s434 24 434 24z"/>
  <path class="fil15" d="m2944 5297c3 48 16 91 54 76 38-16 63-65 55-119-20 60-98 57-97-10-5 23-12 44-12 53z"/>
  <path class="fil15" d="m2834 3032c-52 49-69 92-61 141 7 49 16 110-9 129 53 41 153-19 151-30-2-10-56-167-61-168l-20-72z"/>
  <path class="fil15" d="m2790 3400c111-52 302-22 377 55 74 76-82 218-108 300-26 81 153 310 94 380-116 62-450 20-481-72 1-137 88-257 67-314-1-36-57-155-34-201 45-94 35-120 85-148z"/>
  <path class="fil24" d="m2803 3098s-15 53-9 95c5 42 9 124 46 151s90-4 125-34 72-84 72-151c1-66-25-147-120-143-96 4-114 82-114 82z"/>
  <path class="fil24" d="m2966 3287s-6 86 12 117c1 21-48 110-98 95-29-9-26-50-26-50 3-31 0-106 0-106l112-56z"/>
  <path class="fil15" d="m2891 3101c19 68 79 84 79 84 10 91-12 155-41 169 79 29 125 7 147-36 21-42 38-224-51-279s-134 62-134 62z"/>
  <path class="fil15" d="m2891 3101c-28 37-89 39-99 37 2-144 141-159 186-107-37 71-87 70-87 70z"/>
  <path class="fil17" d="m2999 3770c-6-3 27-259 27-259l-226-45-10 396 205 48 4-140z"/>
  <path class="fil24" d="m2878 3704s-72-70-88-86-16 5 5 43c-33 8-54 51-56 66-2 16 39 55 51 60 12 4 60 0 60 0l28-83z"/>
  <path class="fil2" d="m3130 3442c-62 5-71 339-71 339s-169-79-181-77c-63 14-28 83-28 83 132 100 185 158 250 145 64-12 113-243 111-347s-42-145-81-143z"/>
  <path class="fil24" d="m2256 3463c-5-2-24-38-34-47-10-8-47-29-58-47-10-17-11 24 0 33 12 10 22 18 22 18s-65-38-83-42c-18-3-42-11-46 0s8 62 19 73c10 12 32 25 61 39 28 15 96 19 96 19 17-11 25-26 23-46z"/>
  <polygon class="fil2" points="5700 6899 6e3 6726 6e3 5075 5700 5248"/>
  <polygon class="fil5" points="5228 7172 5527 6999 5527 6183 5228 6356"/>
  <polygon class="fil11" points="4755 7445 5055 7272 5055 6147 4755 6320"/>
  <path class="fil24" d="m6135 5441s-24-158-60-202c-35-44-1 75-6 84-37 16-63 61-41 98 22 36 49 36 49 36l58-16z"/>
  <path class="fil32" d="m6497 5890c-242-87-276-109-276-109s-65-300-72-352c-50-15-99 28-99 28 27 246 28 370 52 419 23 50 249 150 311 177 62 26 173-50 84-163z"/>
  <path class="fil24" d="m6277 5591c-52 23-100 197-71 258 28 61 73 65 130 50s122-90 143-160c29-94-54-214-202-148z"/>
  <path class="fil10" d="m6216 7681v14c-27 16-89 8-105 0-10-16-39-12-55-5-61 5-83-4-104-19-10-8-29-27-27-48 73 17 291 58 291 58z"/>
  <path class="fil14" d="m6111 7575s-67 19-106 25c-40 6-68-1-77 13-10 14 11 51 46 63 35 13 106-2 133 4 26 6 93 18 109 1 16-16 0-96 0-96l-105-10z"/>
  <path class="fil14" d="m6482 7487-120-134c-47-13-97-16-91 28 6 39 68 56 111 94l39 35c28 25 65 3 61-23z"/>
  <path class="fil24" d="m6369 5809c-5 5-10 9-15 13-31 24-61 38-99 48-6 2-12 4-19 5l3 34c40 11 80-6 108-13 20-6 53-11 53-33l-31-54z"/>
  <path class="fil10" d="m6421 7510-39-35c-43-38-105-55-111-94v-1c-1 4-1 9 0 14 6 39 68 56 111 94l39 35c34 29 69 8 61-36 4 26-33 48-61 23z"/>
  <path class="fil3" d="m6481 6556c42 59-62 221-33 422 19 137 56 366 47 496-1 24-94 40-119-74-42-194-95-315-114-466l10-437 209 59z"/>
  <path class="fil2" d="m6349 6535c12 181-118 404-110 550 9 151-7 335-8 499 0 0-133 63-139-35-20-320-81-420 1-1007l256-7z"/>
  <path class="fil14" d="m6107 6359c-5-175 28-347 28-347 16-23 35-42 57-58l43-52c30-8 60-16 90-25 48-15 99-15 147 0 63 26 76 69 47 150 1 4-55 228-62 296-1 7 48 189 58 263 0 0-46 42-59 52-93 117-400-24-411-86-5-23 33-95 62-193z"/>
  <path class="fil10" d="m6258 5602s-16 14-25 44c-10 31-7 51-8 66-1 16-7 25-4 32 3 8 22-34 40-38 18-5 16 50-24 65-17 26-3 90 6 104 10 14 68 31 118 14 50-18 83-68 124-133 41-66 0-114 0-114 20-44-134-102-198-104-40 1-29 64-29 64z"/>
  <path class="fil24" d="m5839 6381c0-1-112 1-127-17-16-18-17-92-17-92l-11-37-1-4h3c5 0 14 1 20 7 4 6 9 17 13 27 2 4 3 7 4 10 2 3 3 6 3 7 1 1 4 3 8 4 3 1 6 2 10 4 13 4 32 9 45 13 5 1 8 2 11 2 2 1 3 1 3 1s35 75 36 75z"/>
  <path class="fil15" d="m5819 6290c-2 2-10 9-19 15-3 0-6-1-11-2l28-23-81-86-51 36 1 1c5 0 14 1 20 7 4 6 9 17 13 27l25 25c-4-2-7-3-10-4-3-4-7-7-11-11-19-20-38-39-38-39l-1-1c-6-7-7-9-4-11 3-3 45-32 48-34s7-1 11 4c4 4 81 85 83 87 1 1 1 5-3 9z"/>
  <path class="fil17" d="m5817 6280-28 23c-13-4-32-9-45-13l-25-25-33-34-1-1 51-36 81 86z"/>
  <path class="fil24" d="m5854 6332s-30-52-32-57-45-24-61-33c-15-8-8 23 14 36 22 12 23 87 47 93 23 6 32-39 32-39z"/>
  <path class="fil33" d="m6295 6089c18-59-48-132-107-113-21 7-39 14-50 33-27 45-32 202-54 296-95 21-239-2-239-2-32 50-25 86-16 90 215 96 340 52 349 47 10-5 117-350 117-351z"/>
  <path class="fil0" d="m5665 664h-2161c-68 0-124-56-124-124 0-69 56-125 124-125h2161c69 0 125 56 125 125 0 68-56 124-125 124z"/>
  <path class="fil0" d="m5432 540h-1541c-75 0-136-61-136-136s61-136 136-136h1541c75 0 136 61 136 136s-61 136-136 136z"/>
  <path class="fil0" d="m5060 360h-670c-99 0-180-81-180-180s81-180 180-180h670c99 0 180 81 180 180s-81 180-180 180z"/>
  <path class="fil0" d="m2604 1722h-1721c-37 0-68-30-68-67s31-67 68-67h1721c37 0 67 30 67 67s-30 67-67 67z"/>
  <path class="fil0" d="m2315 1690h-1157c-66 0-120-54-120-120s54-120 120-120h1157c66 0 120 54 120 120s-54 120-120 120z"/>
  <path class="fil0" d="m1723 1492h-423c-40 0-72-32-72-72 0-39 32-71 72-71h423c40 0 72 32 72 71 0 40-32 72-72 72z"/>
</svg>
