<?xml version="1.0" encoding="UTF-8"?>
<!DOCTYPE svg  PUBLIC '-//W3C//DTD SVG 1.1//EN'  'http://www.w3.org/Graphics/SVG/1.1/DTD/svg11.dtd'>
<svg enable-background="new 0 0 430.117 430.117" version="1.1" viewBox="0 0 430.12 430.12" xml:space="preserve" xmlns="http://www.w3.org/2000/svg">
	<path d="m430.12 261.54v159.02h-92.188v-148.37c0-37.271-13.334-62.707-46.703-62.707-25.473 0-40.632 17.142-47.301 33.724-2.432 5.928-3.058 14.179-3.058 22.477v154.87h-92.219s1.242-251.28 0-277.32h92.21v39.309c-0.187 0.294-0.43 0.611-0.606 0.896h0.606v-0.896c12.251-18.869 34.13-45.824 83.102-45.824 60.673-1e-3 106.16 39.636 106.16 124.82zm-377.93-251.98c-31.548 0-52.183 20.693-52.183 47.905 0 26.619 20.038 47.94 50.959 47.94h0.616c32.159 0 52.159-21.317 52.159-47.94-0.606-27.212-20-47.905-51.551-47.905zm-46.706 411h92.184v-277.32h-92.184v277.32z"/>
</svg>
