<?xml version="1.0" encoding="UTF-8"?>
<svg style="" version="1.0" viewBox="0 0 3333 2500" xmlns="http://www.w3.org/2000/svg">
<rect width="100%" height="100%" fill="none"/>
<metadata>Created by potrace 1.15, written by Peter Selinger 2001-2017</metadata>
<g class="currentLayer" style="">
<title>Layer 1</title>
<g class="selected" transform="translate(0 2500) scale(.1 -.1)" fill="#6d6d6d">
<path d="m13258 24331c-85-28-118-74-118-166 0-32-7-96-16-144-9-47-21-113-27-146-15-82-93-235-181-352-40-54-191-235-335-403-370-429-506-609-642-845-173-301-264-597-275-890-11-274 37-461 201-790 103-206 167-302 325-486 154-181 293-292 428-342 45-17 80-21 167-22 103 0 114 2 175 31 211 101 300 365 210 622-35 98-101 199-203 309-130 141-186 215-241 322-75 144-99 229-98 346 0 247 143 525 535 1043 341 450 442 603 525 799 70 167 94 275 94 428 0 311-117 562-306 655-69 34-165 48-218 31z"/>
<path d="m16152 24215c-42-19-74-88-131-285-61-212-190-472-325-654-32-45-179-202-325-351-147-148-297-310-334-360-189-253-268-523-268-920 0-196 17-354 56-529 52-229 110-366 290-691 103-183 153-297 185-410 47-173 138-303 274-393 67-44 115-55 216-50 118 6 199 45 295 142 114 115 155 216 155 381 0 194-66 370-278 735-218 377-251 480-268 835-11 239 15 312 177 495 409 463 567 691 684 984 60 152 78 248 78 411 0 134-3 159-27 239-37 124-108 257-171 321-88 91-209 134-283 100z"/>
<path d="m14335 19410c-292-13-680-38-1010-66-441-36-574-42-1065-49-969-13-1466-42-1985-116-878-125-1405-335-1775-709-274-276-402-598-369-929 9-84 8-125-5-215-19-135-42-361-56-556-6-80-15-696-20-1370-8-1202-15-1597-46-2750-35-1339-35-2362 1-3554 18-594 21-1309 5-1581-6-104-24-381-40-615-41-589-49-740-56-1106-18-896 85-1542 327-2044 132-273 262-456 483-676 235-234 445-382 776-547 688-344 1518-530 2725-612 1041-70 3908-157 4660-141 755 16 1302 63 1801 155 883 162 1462 402 1913 792 166 143 311 341 438 594 41 83 99 181 129 220 197 253 322 621 341 1006l6 126 81 12c120 18 411 77 550 112 741 185 1412 499 1981 925 197 148 307 244 515 453 384 384 668 783 915 1286 328 667 510 1351 587 2205 20 226 17 945-5 1190-81 886-258 1577-566 2215-314 648-699 1120-1256 1537-421 315-899 561-1435 739-568 188-1423 341-1576 282-12-4-14 35-14 248 0 589-35 1142-93 1471-9 49-11 94-6 125 13 79 10 245-6 336-100 574-719 1041-1625 1226-243 50-556 87-1050 126-440 34-575 46-1295 115-674 65-1082 100-1440 126-268 18-1144 27-1440 14zm510-710c636-26 1081-70 2500-245 374-46 781-96 905-110 288-32 533-67 790-111 198-34 403-73 407-78 1-1-26-40-61-87-90-119-230-249-461-429-260-201-598-524-627-599-3-9-366-36-373-29-3 2 66 67 152 144 86 76 288 268 447 425l291 287v47c0 41-4 51-37 81-40 36-80 44-121 23-12-7-128-116-257-243-331-326-534-511-762-699l-107-87-213-9c-117-5-214-8-216-7-4 5 220 211 453 416 297 262 444 400 461 432 41 80-17 168-111 168-38 0-50-9-215-165-47-44-211-190-365-324s-348-311-431-393l-150-148h-158-159l68 55c88 73 265 205 385 288 125 86 135 98 135 157 0 66-40 110-98 110-33 0-60-14-166-87-242-166-441-319-593-455l-87-78h-161-162l118 98c66 54 162 131 214 171 124 96 130 104 130 158 0 36-6 50-29 74-59 58-81 46-432-242-86-70-198-158-249-195l-92-66-149 7-149 7 66 72c36 39 99 115 140 169 82 108 91 142 54 190-22 28-74 43-115 33-15-4-53-43-101-102-76-96-243-268-319-328l-40-33-270 9c-148 5-281 11-294 14-21 4 3 31 213 237l237 232-1 43c0 62-41 102-103 102-45 0-48-3-179-128-73-70-215-205-316-299l-183-172-47 5c-26 2-166 11-312 20-145 8-266 16-268 18-4 4 135 114 298 236 174 130 288 228 306 262 20 39 10 81-28 113s-87 33-125 1c-15-13-118-87-228-166-236-168-363-268-462-363l-71-69-159 2c-87 1-178 5-202 8l-44 7 184 161c101 88 229 198 284 244 55 45 103 88 107 94s8 30 8 52c0 59-42 104-98 104-48 0-98-36-388-277-104-87-223-185-264-217s-100-82-130-111l-55-52-209 6-209 6 224 215c383 367 487 472 499 501 9 21 9 36 0 64-14 44-51 70-100 70-33 0-48-10-122-80-46-44-185-175-309-291-123-116-273-254-334-307-60-52-126-111-144-131-34-36-36-36-115-36-45 0-165 3-268 7l-187 6 72 80c40 44 153 159 252 256 232 226 416 413 466 474 50 63 53 111 10 159-23 26-36 32-67 32-37 0-50-11-309-270-149-148-326-318-395-379-69-60-177-161-241-223l-116-113-206 16c-114 8-218 15-232 15-25 0-23 3 22 41 26 23 149 143 273 268s346 344 493 487l268 259-1 43c0 61-41 102-100 102-41 0-48-5-179-133-281-273-530-506-666-622-209-179-283-258-370-398-9-15-20-15-123 3-116 20-299 64-309 74-13 13 333 365 532 542 137 121 320 272 436 359 132 98 139 107 139 162 0 74-61 114-123 82-57-30-398-300-571-453-342-300-523-472-603-570l-32-40-59 28c-31 15-68 35-80 45l-23 17 69 90c89 116 409 451 645 677l185 178 134 30c189 43 498 94 743 123 210 25 334 36 1371 124l552 47 898-2c495-2 1016-7 1159-13zm-5307-487c-132-119-375-363-488-490-65-72-121-129-124-125-22 21 12 74 197 315 58 75 114 151 124 167 13 23 55 49 176 110 87 44 163 80 168 80 6 0-18-26-53-57zm10204-139c88-32 213-93 289-141l55-36-120-111c-305-281-394-377-441-477-14-30-25-72-25-96 0-31-4-43-17-47-41-12-363-57-543-76-107-11-215-22-240-25l-45-5 120 121c66 66 210 193 320 282s250 212 310 272c119 120 228 264 247 326 6 22 12 39 14 39s36-12 76-26zm535-426c7-70-16-118-101-202-108-108-183-152-349-201-59-17-59-18 53 110 113 129 370 369 382 357 5-5 12-34 15-64zm-11028-1192c301-98 657-160 1146-201 287-24 476-34 1035-55 1398-53 1745-69 2335-105 888-55 1220-65 2150-65 1181 0 1973 27 2675 90 118 11 215 18 216 17s-86-94-193-207-229-243-270-290c-145-164-240-335-250-450-5-53-4-58 22-78 15-12 38-22 50-22 50 0 140 89 287 285 41 55 145 181 229 280 85 99 217 257 293 350l139 170 61 8c380 47 687 102 871 155 55 16 102 28 104 26 5-4-97-127-269-325-354-408-596-718-834-1069-270-397-341-497-489-690-229-298-337-468-337-528 0-40 31-72 68-72 44 0 128 64 257 194 145 147 227 258 635 866 168 250 377 554 465 675 364 504 423 588 534 755 64 96 134 202 154 235l38 60-6-145c-3-80-17-309-30-510-14-201-28-437-33-525l-8-161-165-234c-304-431-957-1387-1118-1637-134-209-295-475-385-639-71-131-80-170-46-204 28-28 64-25 95 8 45 47 271 341 387 503 95 132 857 1272 1132 1694l91 140 7-465 7-465-67-99c-37-54-134-187-217-296-436-578-597-788-777-1017-334-426-557-736-657-914-52-93-34-149 46-149 26 0 48 14 110 69 254 224 461 480 868 1071 93 135 248 358 345 495 97 138 217 310 266 384l89 134 6-154c4-85 12-366 19-625l12-472-99-123c-193-240-792-1064-1037-1426l-89-132-53 107c-155 313-372 562-814 932-357 299-478 388-660 484-53 28-139 77-191 108-193 118-348 168-513 168-110 0-195-16-277-53l-54-24 53 156c114 335 155 550 156 816 1 199-12 283-64 428-84 230-268 402-485 453-100 23-259 21-360-5-314-82-597-348-791-744-84-173-146-366-193-598l-39-194-122-280c-67-154-183-419-257-590-314-721-492-1173-693-1770-60-176-131-379-158-450-78-206-224-545-232-540-4 2-10 27-14 55-18 136-116 363-234 540-90 137-146 205-305 375-186 200-267 316-267 385 0 70 89 168 575 641 187 180 294 316 365 462 76 156 93 232 93 412 0 178-17 259-87 400-128 258-336 385-611 372-183-9-361-73-554-200-53-35-123-78-156-97-108-59-256-166-500-361-276-220-333-269-469-399-317-304-530-643-606-965-92-383 1-859 252-1296 162-283 340-520 568-753 322-329 562-495 818-561 268-71 557-21 768 130 21 15 21 13-7-101-16-65-36-164-44-222-20-135-20-380-1-492 60-337 246-558 542-642 112-31 303-31 424 0 301 79 568 312 783 683 166 285 251 506 457 1183 116 378 196 610 350 1006 318 820 389 1005 484 1270 57 157 127 357 156 445s55 164 58 169c2 5 15-22 27-60 84-260 263-492 646-839 218-197 295-279 331-352 27-56 29-67 20-103-21-82-61-137-294-393-374-413-528-718-528-1047 0-259 87-471 269-650 136-134 277-211 450-246 113-22 325-15 423 14 251 75 463 216 723 476 454 456 784 968 894 1391 53 200 70 454 42 617l-11 68 68 92c126 171 260 365 523 760 144 216 325 484 403 595l141 203 6-233c4-127 7-479 8-782l1-550-135-172c-163-209-429-563-550-733-49-69-211-289-360-490-503-678-718-995-899-1331-49-92-55-119-30-143 35-36 64-21 168 86 277 287 495 570 911 1178 279 408 853 1218 896 1265 5 5 9-193 9-470v-480l-136-160c-128-151-182-227-449-635-144-221-226-335-580-805-458-609-890-1226-1082-1542-97-161-209-382-219-433-8-36 24-70 65-70 24 0 41 14 96 78 103 119 246 313 425 577 189 278 381 545 704 980 530 714 632 857 818 1147 62 97 167 252 233 343l120 166 6-278c4-153 7-429 8-614l1-335-32-45c-360-499-842-1132-1568-2059-342-437-498-641-651-855-231-321-509-754-509-792 0-52 69-71 105-29 11 13 88 102 170 198 299 344 530 636 1205 1523 517 678 906 1199 1125 1503l160 222 6-167c4-93 8-397 9-676l3-508-98-147c-255-383-659-957-847-1204-57-75-232-295-388-488-361-446-550-696-550-727 0-29 42-73 68-73 45 0 274 193 462 387 333 344 869 1068 1346 1816l31 48 6-68c4-37 19-161 33-275l28-207-29-53c-61-115-226-354-458-661-281-372-347-467-347-500 0-62 68-65 137-5 256 221 485 477 659 738l64 94-6-69c-24-301-110-509-318-769-99-124-284-269-476-373-407-222-1134-398-1930-468-342-29-512-36-1065-42-602-6-1036 2-2155 42-382 13-918 31-1190 40-1235 38-1798 91-2445 231-1003 217-1517 535-1791 1109-60 125-91 226-134 434-72 346-95 652-87 1196 6 394 13 540 62 1245 51 718 53 944 20 2070-41 1393-44 2275-11 3370 29 962 38 1588 32 2215-9 839-24 1685-32 1767l-7 67 80-33c44-19 130-50 192-70zm12135-1505l78-28-88-76-89-76-3 82c-2 50 2 90 9 104 7 13 13 23 13 23 1 0 36-13 80-29zm403-128c96-31 98-24-27-128-84-69-461-348-465-343-2 2-4 31-6 65l-4 61 192 186c106 102 201 186 210 186s54-12 100-27zm558-198c712-267 1149-531 1568-949 483-480 810-1067 1001-1796 258-982 284-2055 72-2979-277-1203-910-2105-1897-2702-111-67-540-289-559-289-4 0-12 16-19 36-23 64-99 92-152 56-40-26-346-235-411-280-51-35-81-46-264-91-114-28-209-50-210-48-2 2 88 76 199 165 112 89 240 200 285 246 78 79 82 86 82 128 0 58-35 98-88 98-29 0-46-11-116-78-98-94-145-133-301-246l-120-87-3 88-3 88 63 60c35 33 160 141 277 240 118 99 252 215 298 258 78 75 83 82 83 121 0 56-39 96-93 96-31 0-49-11-124-77-115-101-208-177-370-301l-133-101v83 84l60 55c33 29 120 95 192 145 73 50 214 158 314 239 281 230 309 250 406 299 124 62 334 188 448 269 176 125 285 218 466 399 356 357 579 715 725 1164l33 103 71 56c87 69 196 143 255 173 69 34 90 58 90 100 0 46-29 85-74 100-41 13-106-9-206-69-36-22-65-39-66-38s1 19 3 39c5 35 12 42 112 106 58 38 134 83 167 100 80 41 94 55 94 102 0 30-6 43-31 64-17 15-43 26-60 26-15 0-77-25-136-55s-110-55-112-55c-8 0 7 114 16 117 29 10 169 110 212 152 56 55 99 132 107 194 7 50-19 92-64 102-51 11-78-8-112-79-25-53-42-73-88-106l-57-41-7 68c-3 37-8 105-10 151l-5 83 86 67c47 37 134 114 194 171 93 90 107 108 107 136 0 47-8 64-41 80-50 26-72 19-160-53-46-38-114-89-150-115l-66-46-11 75c-7 42-10 79-7 84 11 17 197 152 281 203 102 62 122 89 104 142-22 68-65 71-192 14-51-23-97-45-103-49-5-4-40-23-76-43-61-34-67-35-72-18-3 15 13 31 72 72 115 80 205 175 243 254 36 77 32 113-14 129-25 9-44-1-195-102-198-132-220-129-87 10 261 275 414 490 414 582 0 25-7 40-26 55-15 12-32 21-39 21-32 0-150-96-274-222-75-76-164-163-197-193l-61-54-43 101-42 102 89 86c48 47 147 135 218 195 72 62 139 127 150 147 56 104-72 203-165 128-14-11-112-86-218-166-216-162-195-156-243-67l-24 44 35 26c58 45 229 214 281 279 40 51 49 69 49 101 0 44-24 74-74 93-43 16-64 5-156-85-70-68-207-179-257-208-7-5-35 23-72 70l-60 78 57 50c195 169 312 310 312 377 0 16-12 41-29 60-24 27-36 33-72 33-37 0-46-5-73-40-62-79-173-182-261-241l-90-61-77 71-78 72 130 114c185 161 210 190 210 240 0 56-34 90-90 90-37 0-51-8-128-73-120-100-280-227-287-227-6 0-205 141-205 145 0 2 46 39 103 83 173 134 246 227 232 293-15 68-116 95-158 42-65-78-135-139-248-215l-125-85-107 54c-59 29-107 55-107 57 0 3 87 76 193 164 105 88 216 185 246 216 47 51 53 61 47 88-8 40-31 65-66 73-34 7-60-5-118-56-23-20-129-96-235-167-106-72-217-153-248-181-37-33-60-47-69-41-7 4-64 23-126 41-63 18-114 36-114 39s30 23 67 45c107 63 201 143 311 267 128 145 207 218 294 274 58 37 68 48 68 72 0 16-9 37-20 47-17 16-25 17-58 7-59-18-189-103-292-192-52-45-129-111-170-147-93-80-158-125-280-193-52-29-117-68-143-87l-48-34-79 12-79 12 82 77c45 42 173 158 284 258 274 247 443 434 443 491 0 33-37 71-69 71-46-1-260-166-536-415-71-65-156-140-187-167l-58-50v70 70l63 54c34 30 141 117 237 193 108 86 231 195 320 286 80 81 151 147 159 148 7 1 127-42 266-94zm-6399-1397c-3-24-25-105-48-180l-41-138-96-54c-53-30-97-54-98-52-1 1 14 65 34 143l35 142 105 91c57 49 107 90 110 90s3-19-1-42zm5538-276c360-174 668-384 896-612 293-292 507-650 644-1077 80-249 139-515 173-778 25-195 25-620 0-790-57-387-186-702-406-990-123-162-357-375-566-515-197-132-615-356-791-423l-41-16-6 132c-6 131-18 1166-37 3447-6 652-13 1299-17 1438-3 138-3 252 2 252 4 0 72-31 149-68zm-5934-838c-38-94-43-101-89-127-27-15-51-27-54-27s7 36 21 80c26 76 31 83 91 130 36 28 66 48 68 47 1-2-15-48-37-103zm-152-392c-1-4-19-52-38-107-33-92-39-101-90-141-30-24-55-42-57-40s15 54 38 117c39 108 44 117 88 146 46 32 66 40 59 25zm-3063-249c-33-30-145-138-250-238-174-168-455-407-455-387 0 9 147 182 169 199 9 6 144 117 301 247 157 129 287 235 290 235s-22-25-55-56zm2845-375c0-2-24-67-53-146l-53-143-58-41c-67-48-67-61-1 126 40 115 44 121 96 162 47 37 69 51 69 42zm-3534-567c-11-51-18-59-121-152-60-53-113-95-118-92s-6 20-3 37c4 23 37 61 129 147 67 64 123 116 124 115 1 0-4-25-11-55zm6587-48c20-32 51-91 71-132l35-74-87-94-87-94-7 88c-4 48-19 128-33 176l-25 89 42 48c24 27 46 49 50 50 4 0 22-26 41-57zm-3385-250c-70-176-86-206-120-224-13-7-4 28 37 154 52 155 57 164 102 205 26 23 48 42 49 42s-30-80-68-177zm-3280-166c-67-63-74-66-86-50-34 47-28 60 59 142l84 79 7-52 8-51-72-68zm6772-174c-12-37-34-94-49-127-39-85-256-341-422-499-146-141-229-208-143-116 137 145 255 310 321 448 26 56 57 99 117 162 44 47 106 117 136 155 30 39 56 64 58 57s-6-43-18-80zm-6610-157l-38-39-26 29c-53 61-53 67-5 124l43 51 32-63 33-63-39-39zm2486-1243c-3-10-19-61-35-114-72-234-79-249-150-317-36-35-79-73-94-84l-28-20 15 33c90 207 213 450 244 482 39 40 57 47 48 20z"/>
</g>
</g>
</svg>
